<?xml version="1.0" encoding="UTF-8" standalone="no"?>
<!-- Created with Inkscape (http://www.inkscape.org/) -->

<svg
   width="297mm"
   height="297mm"
   viewBox="0 0 297 297"
   version="1.1"
   id="svg5"
   inkscape:version="1.2 (dc2aedaf03, 2022-05-15)"
   sodipodi:docname="logo alferi hotel.svg"
   xmlns:inkscape="http://www.inkscape.org/namespaces/inkscape"
   xmlns:sodipodi="http://sodipodi.sourceforge.net/DTD/sodipodi-0.dtd"
   xmlns="http://www.w3.org/2000/svg"
   xmlns:svg="http://www.w3.org/2000/svg">
  <sodipodi:namedview
     id="namedview7"
     pagecolor="#505050"
     bordercolor="#eeeeee"
     borderopacity="1"
     inkscape:showpageshadow="0"
     inkscape:pageopacity="0"
     inkscape:pagecheckerboard="0"
     inkscape:deskcolor="#505050"
     inkscape:document-units="mm"
     showgrid="false"
     showguides="true"
     inkscape:zoom="0.35355339"
     inkscape:cx="524.67323"
     inkscape:cy="599.62655"
     inkscape:window-width="1304"
     inkscape:window-height="745"
     inkscape:window-x="-8"
     inkscape:window-y="-8"
     inkscape:window-maximized="1"
     inkscape:current-layer="layer1" />
  <defs
     id="defs2" />
  <g
     inkscape:label="Camada 1"
     inkscape:groupmode="layer"
     id="layer1">
    <g
       id="g10902"
       transform="matrix(1.2610546,0,0,1.2610546,14.750516,-28.60598)"
       style="fill:#f0f0f0;fill-opacity:1">
      <path
         id="path9140"
         style="color:#000000;fill:#f0f0f0;fill-opacity:1;fill-rule:evenodd;stroke-linecap:round;paint-order:markers stroke fill"
         d="m 106.28912,82.374817 c -34.255607,-2e-6 -63.182354,23.470273 -71.537236,55.156843 0.09664,1.9e-4 0.193256,2.7e-4 0.289905,5.1e-4 1.033461,0.003 2.067148,0.008 3.100586,0.016 2.095859,0.0164 4.191554,0.0365 6.286954,0.0853 2.531255,0.0643 5.061472,0.16037 7.590752,0.27957 0.0043,1.6e-4 0.0086,3.5e-4 0.01292,5.2e-4 7.639469,-22.63005 28.98282,-38.837429 54.256119,-38.837427 25.34838,3e-6 46.74248,16.304537 54.32278,39.039997 0.43612,0.0299 0.87211,0.0614 1.30793,0.0966 2.26233,0.17601 5.26795,-0.19471 7.53443,-0.0801 2.41775,0.12038 1.77012,-0.79737 4.18372,-0.60564 0.51188,0.0337 2.05731,0.77581 3.25975,1.26814 0.10427,-0.0516 0.2112,-0.0989 0.31678,-0.1478 0.0325,-0.0139 0.10154,-0.0486 0.1757,-0.0816 -0.63235,-1.0082 -2.38828,-1.84465 -5.74436,-2.43447 -0.21595,-0.038 -0.44392,-0.0336 -0.64802,-0.11369 -0.0405,-0.0159 -0.0394,-0.0213 -0.0119,-0.0202 0.0825,0.003 0.40042,0.0661 0.52968,0.0832 0.2805,0.0371 0.55997,0.0816 0.84077,0.11627 0.92703,0.11459 1.8614,0.19366 2.79053,0.28836 0.82277,0.0938 1.64461,0.19343 2.46652,0.29404 -8.61091,-31.30373 -37.34116,-54.40443 -71.32381,-54.404433 z M 34.140552,170.04647 c -0.179856,2.7e-4 -0.359599,0.002 -0.539502,0.005 6.454695,34.23945 36.616018,60.26505 72.68807,60.26505 35.8082,-1e-5 65.78994,-25.64735 72.54027,-59.51626 -0.42136,8e-4 -0.84273,5.8e-4 -1.264,0.003 -0.87957,0.005 -1.75922,0.0113 -2.6386,0.031 -1.06445,0.0255 -2.12817,0.0631 -3.19102,0.12815 -1.65599,0.0952 -3.31238,0.1799 -4.97076,0.2217 -1.72161,0.0408 -3.44388,0.0512 -5.16609,0.0501 -6.52249,24.46104 -28.73741,42.38345 -55.3098,42.38346 -26.822613,0 -49.218483,-18.25687 -55.504106,-43.07127 -0.998212,0.0372 -1.996612,0.07 -2.995683,0.0434 -1.308855,-0.0163 -2.617881,-0.0428 -3.925859,-0.0951 -1.634017,-0.0681 -3.266843,-0.15611 -4.897375,-0.28422 -1.607355,-0.0856 -3.215627,-0.1662 -4.825545,-0.16381 z"
         inkscape:export-filename="logo4.png"
         inkscape:export-xdpi="300"
         inkscape:export-ydpi="300" />
      <path
         id="path9137"
         style="color:#000000;fill:#f0f0f0;fill-opacity:1;fill-rule:evenodd;stroke-linecap:square;paint-order:markers stroke fill"
         d="m 106.89985,-33.022951 c -1.79834,1.812363 -2.97018,4.237235 -2.97018,6.686854 l -2e-5,130.009867 c 0,0.38606 0.0452,0.77575 0.11398,1.16542 0.45898,-0.4314 0.92519,-0.85548 1.39327,-1.27653 0.81947,-0.72043 1.63828,-1.44155 2.44349,-2.17745 0.63052,-0.60123 1.27982,-1.18117 1.94425,-1.745708 0.67352,-0.605773 1.43976,-1.100497 2.17516,-1.631162 0.66896,-0.515353 1.43713,-0.896106 2.13595,-1.369578 0.37896,-0.245611 0.7125,-0.546719 1.04722,-0.844712 0.58159,-0.53882 1.15802,-1.082178 1.75902,-1.600185 0.51837,-0.435973 1.02134,-0.888656 1.51464,-1.351841 0.52497,-0.494842 1.03974,-1.000619 1.55286,-1.507587 0.30555,-0.302479 0.61037,-0.605466 0.91511,-0.908762 0.13309,-0.132469 0.30224,-0.267671 0.40016,-0.43828 0.40399,-0.53197 0.81405,-1.058793 1.23375,-1.577616 0.29574,-0.327673 0.50183,-0.568601 0.74621,-0.803398 l 1.8e-4,-104.266474 105.42718,1.83e-4 c 0.0248,-0.02568 0.0479,-0.05155 0.0732,-0.07719 0.53856,-0.546338 1.13904,-1.02813 1.72539,-1.522881 0.6762,-0.594781 1.35584,-1.185822 2.03408,-1.778365 -0.47136,-0.790462 -1.27737,-0.926265 -2.72413,0.266206 -0.009,0.0075 -0.0348,0.0313 -0.0272,0.02246 0.7663,-0.889238 1.59287,-1.726063 2.40386,-2.573016 0.37238,-0.39445 0.75054,-0.783625 1.133,-1.167944 1.1474,-1.15295 2.33547,-2.264627 3.53753,-3.361225 0.90589,-0.809124 1.79629,-1.635215 2.70381,-2.442526 0.51595,-0.461153 1.04822,-0.904516 1.59348,-1.332206 0.60231,-0.42519 1.17376,-0.887322 1.75259,-1.341207 0.83917,-0.626979 1.65258,-1.284029 2.44074,-1.970596 0.51341,-0.45883 1.02618,-0.918312 1.53704,-1.3798 -1.04972,-0.453683 -2.15841,-0.716632 -3.27483,-0.716632 l -130.01173,-4.9e-4 c -2.50583,0 -4.9307,1.200007 -6.72905,3.01237 z m 127.06513,61.0448 1e-5,65.97815 -64.40226,-2.89e-4 c -0.76736,0.790331 -1.54732,1.567977 -2.35136,2.321983 -1.19325,1.132054 -2.40238,2.24864 -3.66374,3.307156 -0.49974,0.414901 -1.004,0.824331 -1.50995,1.231991 -0.1689,0.28756 -0.3385,0.57459 -0.51128,0.86071 -0.56249,0.8773 -1.13669,1.74743 -1.81659,2.53214 -0.76341,0.89378 -1.55231,1.76811 -2.40267,2.57897 -0.89225,0.85148 -1.79094,1.6969 -2.74436,2.48228 -1.0149,0.82471 -2.06168,1.61109 -3.1692,2.31945 -0.60396,0.38038 -1.21434,0.75296 -1.81443,1.1378 -0.27327,0.16914 -0.51601,0.38032 -0.74516,0.60301 l 94.80661,-3.7e-4 c 2.30832,0 4.74617,-1.28319 6.6004,-3.14621 1.83546,-1.84418 3.09905,-4.25652 3.09905,-6.55483 l -6.3e-4,-93.658841 c -0.28036,0.280398 -0.5607,0.560807 -0.84116,0.841162 -0.43176,0.431591 -0.86328,0.863539 -1.29549,1.294693 -0.42275,0.421221 -0.84554,0.842164 -1.27059,1.261061 -0.51423,0.50547 -1.03088,1.008771 -1.55535,1.50373 -0.77307,0.72631 -1.55393,1.44419 -2.3591,2.135943 -0.6927,0.591649 -1.40622,1.159781 -2.05439,1.800256 -1.55082,1.425971 -3.11637,2.836125 -4.68207,4.246082 -1.79244,1.618774 -3.60338,3.221761 -5.31629,4.923973 z"
         sodipodi:nodetypes="sssccccccccccscccccccccccsccccccccssccccccccccccccsccsccccccc"
         transform="matrix(0.75933141,0.65070409,-0.75933141,0.65070409,0,0)" />
      <path
         id="path9134"
         style="color:#000000;fill:#f0f0f0;fill-opacity:1;fill-rule:evenodd;stroke-linecap:square;paint-order:markers stroke fill"
         d="m -7.3514893,135.24808 c -0.00109,0 -0.7587032,0.15412 -0.7596435,0.15451 -9.404e-4,4e-4 -0.624575,0.4189 -0.6252848,0.41961 -7.099e-4,7.1e-4 -0.4192163,0.62228 -0.4196127,0.62322 -3.964e-4,9.4e-4 -0.1524454,0.75855 -0.1524454,0.75964 0,0 2.7641493,0.80192 4.1772453,1.06077 2.5519887,0.46748 7.7331331,0.88279 7.7331331,0.88279 H 207.70287 c 0,0 6.14801,-0.20511 9.15486,-0.7885 1.28998,-0.25028 3.76911,-1.15503 3.76911,-1.15503 0,-0.001 -0.1536,-0.7587 -0.15399,-0.75964 -4e-4,-9.4e-4 -0.41942,-0.62251 -0.42013,-0.62322 -7.1e-4,-7.1e-4 -0.62228,-0.41921 -0.62322,-0.41961 -9.4e-4,-3.9e-4 -0.76062,-0.1545 -0.76171,-0.15451 z m -1.9569864,36.1115 c 0,0.001 0.152049,0.7587 0.1524454,0.75964 3.964e-4,9.4e-4 0.4189028,0.62251 0.4196127,0.62322 7.098e-4,7.1e-4 0.6243444,0.41921 0.6252848,0.41961 9.403e-4,3.9e-4 0.7585556,0.15451 0.7596435,0.15451 H 218.66779 c 0.001,0 0.76077,-0.15412 0.76171,-0.15451 9.4e-4,-4e-4 0.62251,-0.4189 0.62322,-0.41961 7.1e-4,-7.1e-4 0.41973,-0.62228 0.42013,-0.62322 3.9e-4,-9.4e-4 0.15399,-0.75855 0.15399,-0.75964 0,0 -2.72477,-1.13545 -4.16336,-1.41789 -2.89211,-0.5678 -8.82631,-0.52566 -8.82631,-0.52566 H 1.0513274 c 0,0 -4.3440275,0.2057 -6.4613331,0.65708 -1.3383412,0.28532 -3.89847,1.28647 -3.89847,1.28647 z"
         sodipodi:nodetypes="sssscaccacssscscsssssssscaccac" />
      <g
         aria-label="Alferi Hotel"
         id="text3147"
         style="font-size:28.9012px;font-family:DFGothic-EB;-inkscape-font-specification:DFGothic-EB;letter-spacing:3.0771px;white-space:pre;fill:#f0f0f0;fill-opacity:1;fill-rule:evenodd;stroke-width:9.55184;stroke-linecap:square;paint-order:markers stroke fill">
        <path
           d="m 20.644765,142.89345 h 0.945499 l 7.493426,19.09342 q 0.451581,1.15717 1.84866,1.15717 h 0.649149 v 1.0584 h -8.32603 v -1.0584 h 0.66326 q 1.298296,0 1.834549,-0.28223 0.36691,-0.19757 0.36691,-0.60682 0,-0.2399 -0.09878,-0.50802 l -1.735766,-4.43115 h -8.241358 l -0.973722,2.54015 q -0.381021,1.01606 -0.381021,1.60876 0,0.69148 0.635036,1.1854 0.649148,0.49391 1.876884,0.49391 h 0.705596 v 1.0584 h -7.563986 v -1.0584 q 1.213625,0 1.919221,-0.52214 0.705595,-0.53625 1.298296,-2.018 z m -0.409245,4.02189 -3.739657,9.29976 h 7.380531 z"
           style="-inkscape-font-specification:Century;fill:#f0f0f0;fill-opacity:1;stroke-width:9.55174"
           id="path9195" />
        <path
           d="m 40.430373,143.09102 v 19.16397 q 0,0.39514 0.239902,0.60682 0.352798,0.28223 0.860827,0.28223 h 1.397079 v 1.0584 h -7.479314 v -1.0584 h 1.32652 q 0.649148,0 0.95961,-0.31046 0.324574,-0.31046 0.324574,-0.87494 v -16.08758 q 0,-0.70559 -0.381022,-1.03017 -0.52214,-0.45158 -1.284184,-0.45158 h -1.185401 v -1.05839 z"
           style="-inkscape-font-specification:Century;fill:#f0f0f0;fill-opacity:1;stroke-width:9.55174"
           id="path9192" />
        <path
           d="m 52.143964,150.97958 h 3.302188 v 1.22773 h -3.302188 v 9.65255 q 0,0.66326 0.310463,0.93139 0.423357,0.35279 1.1854,0.35279 h 1.806325 v 1.0584 h -8.100238 v -1.0584 h 1.114841 q 0.747931,0 1.044282,-0.25401 0.29635,-0.25401 0.29635,-0.79027 v -9.89245 h -2.28613 v -1.22773 h 2.28613 v -0.98784 q 0,-3.49975 1.453527,-5.3343 1.453527,-1.84866 3.598538,-1.84866 1.594646,0 2.483697,0.77615 0.903162,0.77616 0.903162,2.03212 0,0.81849 -0.437469,1.29829 -0.423358,0.4657 -1.086617,0.4657 -0.592701,0 -0.987834,-0.38102 -0.381022,-0.38103 -0.381022,-0.95961 0,-0.66326 0.508029,-1.08662 0.409245,-0.33869 0.409245,-0.50803 0,-0.2399 -0.324574,-0.43747 -0.310462,-0.19757 -0.945498,-0.19757 -1.199513,0 -2.032116,1.07251 -0.818491,1.05839 -0.818491,3.16107 z"
           style="-inkscape-font-specification:Century;fill:#f0f0f0;fill-opacity:1;stroke-width:9.55174"
           id="path9189" />
        <path
           d="m 72.733948,157.68273 h -9.469094 q 0.07056,3.01995 1.128953,4.2618 1.213624,1.39708 3.090509,1.39708 2.765935,0 4.445253,-3.14696 l 0.917274,0.39514 q -2.060339,4.00778 -5.955227,4.00778 -2.65304,0 -4.473477,-1.91922 -1.806325,-1.91922 -1.806325,-4.91094 0,-3.21752 1.778101,-5.19319 1.792213,-1.98978 4.402917,-1.98978 1.91922,0 3.3163,0.98784 1.397079,0.98783 2.102675,2.83649 0.493917,1.2983 0.522141,3.27396 z m -9.469094,-1.00194 h 5.729437 q 0.508029,0 0.790267,-0.33869 0.282238,-0.3528 0.282238,-1.1854 0,-1.55231 -0.973722,-2.63893 -0.95961,-1.08661 -2.272018,-1.08661 -1.467639,0 -2.497809,1.3124 -1.016057,1.31241 -1.058393,3.93723 z"
           style="-inkscape-font-specification:Century;fill:#f0f0f0;fill-opacity:1;stroke-width:9.55174"
           id="path9186" />
        <path
           d="m 77.645599,150.97958 4.755715,-0.23991 v 5.34842 q 0.762044,-2.63893 1.834549,-3.99367 1.072505,-1.35475 2.65304,-1.35475 1.072505,0 1.707541,0.66326 0.649148,0.64915 0.649148,1.74988 0,0.88905 -0.437469,1.38297 -0.423357,0.49391 -1.072505,0.49391 -0.635036,0 -1.03017,-0.42335 -0.381022,-0.42336 -0.381022,-1.14307 0,-0.46569 0.225791,-0.87494 0.211679,-0.36691 0.211679,-0.43747 0,-0.21167 -0.268127,-0.21167 -0.578588,0 -1.312408,0.67737 -1.016058,0.9455 -1.566422,2.59659 -0.846715,2.56837 -0.846715,4.10657 v 2.83649 q 0,0.47981 0.338686,0.73382 0.338686,0.25401 1.157177,0.25401 h 1.679318 v 1.0584 h -8.213134 v -1.0584 h 1.312408 q 0.66326,0 1.001946,-0.25401 0.338686,-0.26813 0.338686,-0.63504 v -8.42481 q 0,-0.95961 -0.409246,-1.39708 -0.409245,-0.45158 -1.171289,-0.45158 h -1.157177 z"
           style="-inkscape-font-specification:Century;fill:#f0f0f0;fill-opacity:1;stroke-width:9.55174"
           id="path9183" />
        <path
           d="m 97.163073,143.09102 q 0.635036,0 1.114841,0.4798 0.479805,0.47981 0.479805,1.12895 0,0.63504 -0.465693,1.10073 -0.465694,0.4657 -1.114842,0.4657 -0.649148,0 -1.128953,-0.4657 -0.465693,-0.4798 -0.465693,-1.11484 0,-0.63503 0.479805,-1.11484 0.479805,-0.4798 1.10073,-0.4798 z m -3.654986,7.88856 5.249632,-0.15524 v 11.37421 q 0,0.46569 0.22579,0.66326 0.324574,0.28223 0.818491,0.28223 h 1.49586 v 1.0584 h -7.507535 v -1.0584 h 1.39708 q 0.620924,0 0.903162,-0.29635 0.29635,-0.31046 0.29635,-0.88905 v -8.32603 q 0,-0.79026 -0.451581,-1.1854 -0.451581,-0.40924 -1.340632,-0.40924 h -1.086617 z"
           style="-inkscape-font-specification:Century;fill:#f0f0f0;fill-opacity:1;stroke-width:9.55174"
           id="path9180" />
        <path
           d="m 117.45741,143.33092 h 8.90462 v 1.05839 h -1.63698 q -0.86083,0 -1.12896,0.31046 -0.25401,0.29635 -0.25401,1.46764 v 6.43504 h 9.55376 v -6.43504 q 0,-1.21362 -0.25401,-1.49586 -0.2399,-0.28224 -1.15718,-0.28224 h -1.52408 v -1.05839 h 8.86228 v 1.05839 h -1.62287 q -0.60681,0 -0.86083,0.15523 -0.2399,0.15523 -0.39513,0.53626 -0.0847,0.2399 -0.0847,1.25596 v 15.01507 q 0,1.08662 0.18345,1.31241 0.36691,0.4798 1.34063,0.4798 h 1.43942 v 1.0584 h -8.86228 v -1.0584 h 1.52408 q 0.90317,0 1.22774,-0.49391 0.18345,-0.26813 0.18345,-1.41119 v -7.25353 h -9.55376 v 7.36642 q 0,1.10073 0.16934,1.32652 0.3528,0.46569 1.21363,0.46569 h 1.63698 v 1.0584 h -8.90462 v -1.0584 h 1.70754 q 0.45158,0 0.71971,-0.18345 0.26813,-0.18345 0.39513,-0.52214 0.0706,-0.22579 0.0706,-1.19951 v -15.07153 q 0,-1.17129 -0.26812,-1.46764 -0.25402,-0.31046 -1.12896,-0.31046 h -1.49586 z"
           style="-inkscape-font-specification:Century;fill:#f0f0f0;fill-opacity:1;stroke-width:9.55174"
           id="path9177" />
        <path
           d="m 150.43766,150.58444 q 2.66715,0 4.47348,1.93333 1.82044,1.91922 1.82044,5.06618 0,2.17324 -0.8185,3.71143 -0.80437,1.52409 -2.31435,2.41314 -1.49586,0.88905 -3.23163,0.88905 -2.56837,0 -4.36058,-1.94744 -1.7781,-1.94745 -1.7781,-5.05207 0,-3.11873 1.79221,-5.06617 1.79222,-1.94745 4.41703,-1.94745 z m 0,1.00195 q -1.58053,0 -2.59659,1.43941 -1.01606,1.42531 -1.01606,4.51582 0,3.14695 1.00195,4.60048 1.01606,1.45353 2.6107,1.45353 1.6511,0 2.66715,-1.45353 1.03017,-1.45353 1.03017,-4.75572 0,-3.06228 -1.01605,-4.43114 -1.00195,-1.36885 -2.68127,-1.36885 z"
           style="-inkscape-font-specification:Century;fill:#f0f0f0;fill-opacity:1;stroke-width:9.55174"
           id="path9174" />
        <path
           d="m 165.19942,145.58882 h 0.95961 v 5.39076 h 4.27591 v 1.29829 h -4.27591 v 8.48126 q 0,1.10073 0.52214,1.69343 0.52214,0.57859 1.32652,0.57859 0.95961,0 1.63698,-0.88905 0.67738,-0.88905 0.79027,-2.93528 h 0.9455 q -0.0847,2.63893 -1.19951,3.92311 -1.11484,1.27008 -2.89294,1.27008 -1.63699,0 -2.56837,-0.88906 -0.91728,-0.90316 -0.91728,-2.35669 v -8.87639 h -2.30024 v -0.98783 q 1.56642,-0.26813 2.38491,-1.31241 1.21363,-1.56642 1.31241,-4.38881 z"
           style="-inkscape-font-specification:Century;fill:#f0f0f0;fill-opacity:1;stroke-width:9.55174"
           id="path9171" />
        <path
           d="m 188.45656,157.68273 h -9.4691 q 0.0706,3.01995 1.12896,4.2618 1.21362,1.39708 3.09051,1.39708 2.76593,0 4.44525,-3.14696 l 0.91727,0.39514 q -2.06034,4.00778 -5.95522,4.00778 -2.65304,0 -4.47348,-1.91922 -1.80633,-1.91922 -1.80633,-4.91094 0,-3.21752 1.77811,-5.19319 1.79221,-1.98978 4.40291,-1.98978 1.91922,0 3.3163,0.98784 1.39708,0.98783 2.10268,2.83649 0.49391,1.2983 0.52214,3.27396 z m -9.4691,-1.00194 h 5.72944 q 0.50803,0 0.79027,-0.33869 0.28224,-0.3528 0.28224,-1.1854 0,-1.55231 -0.97373,-2.63893 -0.95961,-1.08661 -2.27201,-1.08661 -1.46764,0 -2.49781,1.3124 -1.01606,1.31241 -1.0584,3.93723 z"
           style="-inkscape-font-specification:Century;fill:#f0f0f0;fill-opacity:1;stroke-width:9.55174"
           id="path9168" />
        <path
           d="m 198.56139,143.09102 v 19.16397 q 0,0.39514 0.2399,0.60682 0.3528,0.28223 0.86083,0.28223 h 1.39708 v 1.0584 h -7.47932 v -1.0584 h 1.32652 q 0.64915,0 0.95961,-0.31046 0.32457,-0.31046 0.32457,-0.87494 v -16.08758 q 0,-0.70559 -0.38102,-1.03017 -0.52214,-0.45158 -1.28418,-0.45158 h -1.1854 v -1.05839 z"
           style="-inkscape-font-specification:Century;fill:#f0f0f0;fill-opacity:1;stroke-width:9.55174"
           id="path9165" />
      </g>
      <g
         id="g4744"
         style="fill:#f0f0f0;fill-opacity:1">
        <g
           id="path4664"
           style="fill:#f0f0f0;fill-opacity:1">
          <path
             style="color:#000000;fill:#f0f0f0;fill-opacity:1;fill-rule:evenodd;stroke-linecap:round;paint-order:markers stroke fill"
             d="m 158.59375,127.65039 -51.58789,7.91602 a 1.75,1.75 0 0 0 -1.46484,1.99609 1.75,1.75 0 0 0 1.99609,1.46289 l 51.58789,-7.91406 a 1.75,1.75 0 0 0 1.46484,-1.9961 1.75,1.75 0 0 0 -1.99609,-1.46484 z"
             id="path9131" />
          <path
             style="color:#000000;fill:#f0f0f0;fill-opacity:1;fill-rule:evenodd;stroke-width:3.5;stroke-linecap:round;paint-order:markers stroke fill"
             d="m 107.27139,137.29646 51.58853,-7.9157"
             id="path9128" />
        </g>
        <g
           id="path4729"
           inkscape:transform-center-x="-25.382874"
           inkscape:transform-center-y="-9.1045399"
           style="fill:#f0f0f0;fill-opacity:1">
          <path
             style="color:#000000;fill:#f0f0f0;fill-opacity:1;fill-rule:evenodd;stroke-linecap:round;paint-order:markers stroke fill"
             d="m 155.39844,116.58203 -48.66406,18.86328 a 1.75,1.75 0 0 0 -1,2.26367 1.75,1.75 0 0 0 2.26562,1 l 48.66406,-18.86328 a 1.75,1.75 0 0 0 0.99805,-2.26367 1.75,1.75 0 0 0 -2.26367,-1 z"
             id="path9125" />
          <path
             style="color:#000000;fill:#f0f0f0;fill-opacity:1;fill-rule:evenodd;stroke-width:3.5;stroke-linecap:round;paint-order:markers stroke fill"
             d="M 107.36669,137.07742 156.03115,118.2146"
             id="path9122" />
        </g>
        <g
           id="path4731"
           inkscape:transform-center-x="-22.631514"
           inkscape:transform-center-y="-14.66279"
           style="fill:#f0f0f0;fill-opacity:1">
          <path
             style="color:#000000;fill:#f0f0f0;fill-opacity:1;fill-rule:evenodd;stroke-linecap:round;paint-order:markers stroke fill"
             d="m 150.80273,105.62695 a 1.75,1.75 0 0 0 -1.31054,0.27539 l -43.06641,29.48243 a 1.75,1.75 0 0 0 -0.45703,2.43164 1.75,1.75 0 0 0 2.43359,0.45703 l 43.06836,-29.48242 a 1.75,1.75 0 0 0 0.45508,-2.4336 1.75,1.75 0 0 0 -1.12305,-0.73047 z"
             id="path9119" />
          <path
             style="color:#000000;fill:#f0f0f0;fill-opacity:1;fill-rule:evenodd;stroke-width:3.5;stroke-linecap:round;paint-order:markers stroke fill"
             d="m 107.41358,136.82874 43.06796,-29.48196"
             id="path9116" />
        </g>
        <g
           id="path4733"
           inkscape:transform-center-x="-17.747089"
           inkscape:transform-center-y="-20.303288"
           style="fill:#f0f0f0;fill-opacity:1">
          <path
             style="color:#000000;fill:#f0f0f0;fill-opacity:1;fill-rule:evenodd;stroke-linecap:round;paint-order:markers stroke fill"
             d="m 141.85156,95.023437 a 1.75,1.75 0 0 0 -2.46484,0.228516 l -33.33984,40.154297 a 1.75,1.75 0 0 0 0.22851,2.46484 1.75,1.75 0 0 0 2.46484,-0.22851 l 33.33985,-40.154299 a 1.75,1.75 0 0 0 -0.22852,-2.464844 z"
             id="path9113" />
          <path
             style="color:#000000;fill:#f0f0f0;fill-opacity:1;fill-rule:evenodd;stroke-width:3.5;stroke-linecap:round;paint-order:markers stroke fill"
             d="M 107.39299,136.52499 140.73328,96.369535"
             id="path9110" />
        </g>
        <g
           id="path4735"
           inkscape:transform-center-x="-9.441174"
           inkscape:transform-center-y="-25.259592"
           style="fill:#f0f0f0;fill-opacity:1">
          <path
             style="color:#000000;fill:#f0f0f0;fill-opacity:1;fill-rule:evenodd;stroke-linecap:round;paint-order:markers stroke fill"
             d="m 124.8418,85.167969 a 1.75,1.75 0 0 0 -2.22657,1.083984 l -17.02539,49.335937 a 1.75,1.75 0 0 0 1.08399,2.22656 1.75,1.75 0 0 0 2.22461,-1.08398 l 17.02539,-49.337892 a 1.75,1.75 0 0 0 -1.08203,-2.224609 z"
             id="path9107" />
          <path
             style="color:#000000;fill:#f0f0f0;fill-opacity:1;fill-rule:evenodd;stroke-width:3.5;stroke-linecap:round;paint-order:markers stroke fill"
             d="m 107.24412,136.15948 17.0262,-49.337042"
             id="path9104" />
        </g>
      </g>
      <g
         id="path4737"
         inkscape:transform-center-x="-0.7637581"
         inkscape:transform-center-y="-25.971304"
         style="fill:#f0f0f0;fill-opacity:1">
        <path
           style="color:#000000;fill:#f0f0f0;fill-opacity:1;fill-rule:evenodd;stroke-linecap:round;paint-order:markers stroke fill"
           d="m 107.10938,83.859375 a 1.74817,1.74817 0 0 0 -1.75196,1.744141 l -0.10547,50.285154 a 1.74817,1.74817 0 0 0 1.74414,1.75195 1.74817,1.74817 0 0 0 1.75196,-1.74414 l 0.10742,-50.285152 a 1.74817,1.74817 0 0 0 -1.74609,-1.751953 z"
           id="path9038" />
        <path
           style="color:#000000;fill:#f0f0f0;fill-opacity:1;fill-rule:evenodd;stroke-width:3.49634;stroke-linecap:round;paint-order:markers stroke fill"
           d="m 107.00039,135.89223 0.1061,-50.285161"
           id="path9035" />
      </g>
      <g
         id="g4756"
         transform="matrix(-1,0,0,1,213.69664,0)"
         style="fill:#f0f0f0;fill-opacity:1">
        <g
           id="path4746"
           style="fill:#f0f0f0;fill-opacity:1">
          <path
             style="color:#000000;fill:#f0f0f0;fill-opacity:1;fill-rule:evenodd;stroke-linecap:round;paint-order:markers stroke fill"
             d="m 158.59375,127.65039 -51.58789,7.91602 a 1.75,1.75 0 0 0 -1.46484,1.99609 1.75,1.75 0 0 0 1.99609,1.46289 l 51.58789,-7.91406 a 1.75,1.75 0 0 0 1.46484,-1.9961 1.75,1.75 0 0 0 -1.99609,-1.46484 z"
             id="path9101" />
          <path
             style="color:#000000;fill:#f0f0f0;fill-opacity:1;fill-rule:evenodd;stroke-width:3.5;stroke-linecap:round;paint-order:markers stroke fill"
             d="m 107.27139,137.29646 51.58853,-7.9157"
             id="path9098" />
        </g>
        <g
           id="path4748"
           inkscape:transform-center-x="-25.382874"
           inkscape:transform-center-y="-9.1045399"
           style="fill:#f0f0f0;fill-opacity:1">
          <path
             style="color:#000000;fill:#f0f0f0;fill-opacity:1;fill-rule:evenodd;stroke-linecap:round;paint-order:markers stroke fill"
             d="m 155.39844,116.58203 -48.66406,18.86328 a 1.75,1.75 0 0 0 -1,2.26367 1.75,1.75 0 0 0 2.26562,1 l 48.66406,-18.86328 a 1.75,1.75 0 0 0 0.99805,-2.26367 1.75,1.75 0 0 0 -2.26367,-1 z"
             id="path9095" />
          <path
             style="color:#000000;fill:#f0f0f0;fill-opacity:1;fill-rule:evenodd;stroke-width:3.5;stroke-linecap:round;paint-order:markers stroke fill"
             d="M 107.36669,137.07742 156.03115,118.2146"
             id="path9092" />
        </g>
        <g
           id="path4750"
           inkscape:transform-center-x="-22.631514"
           inkscape:transform-center-y="-14.66279"
           style="fill:#f0f0f0;fill-opacity:1">
          <path
             style="color:#000000;fill:#f0f0f0;fill-opacity:1;fill-rule:evenodd;stroke-linecap:round;paint-order:markers stroke fill"
             d="m 150.80273,105.62695 a 1.75,1.75 0 0 0 -1.31054,0.27539 l -43.06641,29.48243 a 1.75,1.75 0 0 0 -0.45703,2.43164 1.75,1.75 0 0 0 2.43359,0.45703 l 43.06836,-29.48242 a 1.75,1.75 0 0 0 0.45508,-2.4336 1.75,1.75 0 0 0 -1.12305,-0.73047 z"
             id="path9089" />
          <path
             style="color:#000000;fill:#f0f0f0;fill-opacity:1;fill-rule:evenodd;stroke-width:3.5;stroke-linecap:round;paint-order:markers stroke fill"
             d="m 107.41358,136.82874 43.06796,-29.48196"
             id="path9086" />
        </g>
        <g
           id="path4752"
           inkscape:transform-center-x="-17.747089"
           inkscape:transform-center-y="-20.303288"
           style="fill:#f0f0f0;fill-opacity:1">
          <path
             style="color:#000000;fill:#f0f0f0;fill-opacity:1;fill-rule:evenodd;stroke-linecap:round;paint-order:markers stroke fill"
             d="m 141.85156,95.023437 a 1.75,1.75 0 0 0 -2.46484,0.228516 l -33.33984,40.154297 a 1.75,1.75 0 0 0 0.22851,2.46484 1.75,1.75 0 0 0 2.46484,-0.22851 l 33.33985,-40.154299 a 1.75,1.75 0 0 0 -0.22852,-2.464844 z"
             id="path9083" />
          <path
             style="color:#000000;fill:#f0f0f0;fill-opacity:1;fill-rule:evenodd;stroke-width:3.5;stroke-linecap:round;paint-order:markers stroke fill"
             d="M 107.39299,136.52499 140.73328,96.369535"
             id="path9080" />
        </g>
        <g
           id="path4754"
           inkscape:transform-center-x="-9.441174"
           inkscape:transform-center-y="-25.259592"
           style="fill:#f0f0f0;fill-opacity:1">
          <path
             style="color:#000000;fill:#f0f0f0;fill-opacity:1;fill-rule:evenodd;stroke-linecap:round;paint-order:markers stroke fill"
             d="m 124.8418,85.167969 a 1.75,1.75 0 0 0 -2.22657,1.083984 l -17.02539,49.335937 a 1.75,1.75 0 0 0 1.08399,2.22656 1.75,1.75 0 0 0 2.22461,-1.08398 l 17.02539,-49.337892 a 1.75,1.75 0 0 0 -1.08203,-2.224609 z"
             id="path9077" />
          <path
             style="color:#000000;fill:#f0f0f0;fill-opacity:1;fill-rule:evenodd;stroke-width:3.5;stroke-linecap:round;paint-order:markers stroke fill"
             d="m 107.24412,136.15948 17.0262,-49.337042"
             id="path9074" />
        </g>
      </g>
      <g
         id="path4758"
         style="fill:#f0f0f0;fill-opacity:1">
        <path
           style="color:#000000;fill:#f0f0f0;fill-opacity:1;fill-rule:evenodd;stroke-linecap:round;paint-order:markers stroke fill"
           d="m 106.1543,170.02734 a 1.749995,1.749995 0 0 0 -1.75,1.75 v 43.42774 a 1.749995,1.749995 0 0 0 1.75,1.75 1.749995,1.749995 0 0 0 1.75,-1.75 v -43.42774 a 1.749995,1.749995 0 0 0 -1.75,-1.75 z"
           id="path9303" />
        <path
           style="color:#000000;fill:#f0f0f0;fill-opacity:1;fill-rule:evenodd;stroke-width:3.49999;stroke-linecap:round;paint-order:markers stroke fill"
           d="m 106.15466,171.77753 v 43.42691"
           id="path9350" />
      </g>
      <g
         id="path4760"
         style="fill:#f0f0f0;fill-opacity:1">
        <path
           style="color:#000000;fill:#f0f0f0;fill-opacity:1;fill-rule:evenodd;stroke-linecap:round;paint-order:markers stroke fill"
           d="m 112.13867,170.02734 a 1.749995,1.749995 0 0 0 -1.75,1.75 v 43.42774 a 1.749995,1.749995 0 0 0 1.75,1.75 1.749995,1.749995 0 0 0 1.75,-1.75 v -43.42774 a 1.749995,1.749995 0 0 0 -1.75,-1.75 z"
           id="path9297" />
        <path
           style="color:#000000;fill:#f0f0f0;fill-opacity:1;fill-rule:evenodd;stroke-width:3.49999;stroke-linecap:round;paint-order:markers stroke fill"
           d="m 112.13792,171.77753 v 43.42691"
           id="path9294" />
      </g>
      <g
         id="path4762"
         style="fill:#f0f0f0;fill-opacity:1">
        <path
           style="color:#000000;fill:#f0f0f0;fill-opacity:1;fill-rule:evenodd;stroke-linecap:round;paint-order:markers stroke fill"
           d="m 118.50781,170.02734 a 1.749995,1.749995 0 0 0 -1.75,1.75 v 43.42774 a 1.749995,1.749995 0 0 0 1.75,1.75 1.749995,1.749995 0 0 0 1.75,-1.75 v -43.42774 a 1.749995,1.749995 0 0 0 -1.75,-1.75 z"
           id="path9291" />
        <path
           style="color:#000000;fill:#f0f0f0;fill-opacity:1;fill-rule:evenodd;stroke-width:3.49999;stroke-linecap:round;paint-order:markers stroke fill"
           d="m 118.5072,171.77753 v 43.42691"
           id="path9288" />
      </g>
      <g
         id="path4764"
         style="fill:#f0f0f0;fill-opacity:1">
        <path
           style="color:#000000;fill:#f0f0f0;fill-opacity:1;fill-rule:evenodd;stroke-linecap:round;paint-order:markers stroke fill"
           d="m 124.68359,170.02734 a 1.749995,1.749995 0 0 0 -1.75,1.75 v 43.42774 a 1.749995,1.749995 0 0 0 1.75,1.75 1.749995,1.749995 0 0 0 1.75,-1.75 v -43.42774 a 1.749995,1.749995 0 0 0 -1.75,-1.75 z"
           id="path9285" />
        <path
           style="color:#000000;fill:#f0f0f0;fill-opacity:1;fill-rule:evenodd;stroke-width:3.49999;stroke-linecap:round;paint-order:markers stroke fill"
           d="m 124.68347,171.77753 v 43.42691"
           id="path9282" />
      </g>
      <g
         id="path4766"
         style="fill:#f0f0f0;fill-opacity:1">
        <path
           style="color:#000000;fill:#f0f0f0;fill-opacity:1;fill-rule:evenodd;stroke-linecap:round;paint-order:markers stroke fill"
           d="m 130.66602,170.02734 a 1.749995,1.749995 0 0 0 -1.75,1.75 v 43.42774 a 1.749995,1.749995 0 0 0 1.75,1.75 1.749995,1.749995 0 0 0 1.75,-1.75 v -43.42774 a 1.749995,1.749995 0 0 0 -1.75,-1.75 z"
           id="path9279" />
        <path
           style="color:#000000;fill:#f0f0f0;fill-opacity:1;fill-rule:evenodd;stroke-width:3.49999;stroke-linecap:round;paint-order:markers stroke fill"
           d="m 130.66673,171.77753 v 43.42691"
           id="path9276" />
      </g>
      <g
         id="path4768"
         style="fill:#f0f0f0;fill-opacity:1">
        <path
           style="color:#000000;fill:#f0f0f0;fill-opacity:1;fill-rule:evenodd;stroke-linecap:round;paint-order:markers stroke fill"
           d="m 136.65039,170.02734 a 1.749995,1.749995 0 0 0 -1.75,1.75 v 43.42774 a 1.749995,1.749995 0 0 0 1.75,1.75 1.749995,1.749995 0 0 0 1.75,-1.75 v -43.42774 a 1.749995,1.749995 0 0 0 -1.75,-1.75 z"
           id="path9273" />
        <path
           style="color:#000000;fill:#f0f0f0;fill-opacity:1;fill-rule:evenodd;stroke-width:3.49999;stroke-linecap:round;paint-order:markers stroke fill"
           d="m 136.64999,171.77753 v 43.42691"
           id="path9270" />
      </g>
      <g
         id="path4770"
         style="fill:#f0f0f0;fill-opacity:1">
        <path
           style="color:#000000;fill:#f0f0f0;fill-opacity:1;fill-rule:evenodd;stroke-linecap:round;paint-order:markers stroke fill"
           d="m 142.24805,170.02734 a 1.749995,1.749995 0 0 0 -1.75,1.75 v 43.42774 a 1.749995,1.749995 0 0 0 1.75,1.75 1.749995,1.749995 0 0 0 1.75,-1.75 v -43.42774 a 1.749995,1.749995 0 0 0 -1.75,-1.75 z"
           id="path8996" />
        <path
           style="color:#000000;fill:#f0f0f0;fill-opacity:1;fill-rule:evenodd;stroke-width:3.49999;stroke-linecap:round;paint-order:markers stroke fill"
           d="m 142.24724,171.77753 v 43.42691"
           id="path8993" />
      </g>
      <g
         id="path4772"
         style="fill:#f0f0f0;fill-opacity:1">
        <path
           style="color:#000000;fill:#f0f0f0;fill-opacity:1;fill-rule:evenodd;stroke-linecap:round;paint-order:markers stroke fill"
           d="m 142.24805,170.02734 a 1.749995,1.749995 0 0 0 -1.75,1.75 v 43.42774 a 1.749995,1.749995 0 0 0 1.75,1.75 1.749995,1.749995 0 0 0 1.75,-1.75 v -43.42774 a 1.749995,1.749995 0 0 0 -1.75,-1.75 z"
           id="path9261" />
        <path
           style="color:#000000;fill:#f0f0f0;fill-opacity:1;fill-rule:evenodd;stroke-width:3.49999;stroke-linecap:round;paint-order:markers stroke fill"
           d="m 142.24724,171.77753 v 43.42691"
           id="path9258" />
      </g>
      <g
         id="path4774"
         style="fill:#f0f0f0;fill-opacity:1">
        <path
           style="color:#000000;fill:#f0f0f0;fill-opacity:1;fill-rule:evenodd;stroke-linecap:round;paint-order:markers stroke fill"
           d="m 148.03711,169.91016 a 1.6230299,1.6230299 0 0 0 -1.62305,1.62304 v 37.35352 a 1.6230299,1.6230299 0 0 0 1.62305,1.62305 1.6230299,1.6230299 0 0 0 1.62305,-1.62305 V 171.5332 a 1.6230299,1.6230299 0 0 0 -1.62305,-1.62304 z"
           id="path9267" />
        <path
           style="color:#000000;fill:#f0f0f0;fill-opacity:1;fill-rule:evenodd;stroke-width:3.24606;stroke-linecap:round;paint-order:markers stroke fill"
           d="m 148.03749,171.53281 v 37.35406"
           id="path9264" />
      </g>
      <g
         id="path4776"
         style="fill:#f0f0f0;fill-opacity:1">
        <path
           style="color:#000000;fill:#f0f0f0;fill-opacity:1;fill-rule:evenodd;stroke-linecap:round;paint-order:markers stroke fill"
           d="m 100.23828,170.02734 a 1.749995,1.749995 0 0 0 -1.749999,1.75 v 43.42774 a 1.749995,1.749995 0 0 0 1.749999,1.75 1.749995,1.749995 0 0 0 1.75,-1.75 v -43.42774 a 1.749995,1.749995 0 0 0 -1.75,-1.75 z"
           id="path9309" />
        <path
           style="color:#000000;fill:#f0f0f0;fill-opacity:1;fill-rule:evenodd;stroke-width:3.49999;stroke-linecap:round;paint-order:markers stroke fill"
           d="m 100.23743,171.77753 v 43.42691"
           id="path9306" />
      </g>
      <g
         id="path4778"
         style="fill:#f0f0f0;fill-opacity:1">
        <path
           style="color:#000000;fill:#f0f0f0;fill-opacity:1;fill-rule:evenodd;stroke-linecap:round;paint-order:markers stroke fill"
           d="m 93.867187,170.02734 a 1.749995,1.749995 0 0 0 -1.75,1.75 v 43.42774 a 1.749995,1.749995 0 0 0 1.75,1.75 1.749995,1.749995 0 0 0 1.75,-1.75 v -43.42774 a 1.749995,1.749995 0 0 0 -1.75,-1.75 z"
           id="path9315" />
        <path
           style="color:#000000;fill:#f0f0f0;fill-opacity:1;fill-rule:evenodd;stroke-width:3.49999;stroke-linecap:round;paint-order:markers stroke fill"
           d="m 93.868149,171.77753 v 43.42691"
           id="path9312" />
      </g>
      <g
         id="path4780"
         style="fill:#f0f0f0;fill-opacity:1">
        <path
           style="color:#000000;fill:#f0f0f0;fill-opacity:1;fill-rule:evenodd;stroke-linecap:round;paint-order:markers stroke fill"
           d="m 87.691406,170.02734 a 1.749995,1.749995 0 0 0 -1.75,1.75 v 43.42774 a 1.749995,1.749995 0 0 0 1.75,1.75 1.749995,1.749995 0 0 0 1.75,-1.75 v -43.42774 a 1.749995,1.749995 0 0 0 -1.75,-1.75 z"
           id="path9321" />
        <path
           style="color:#000000;fill:#f0f0f0;fill-opacity:1;fill-rule:evenodd;stroke-width:3.49999;stroke-linecap:round;paint-order:markers stroke fill"
           d="m 87.691879,171.77753 v 43.42691"
           id="path9318" />
      </g>
      <g
         id="path4782"
         style="fill:#f0f0f0;fill-opacity:1">
        <path
           style="color:#000000;fill:#f0f0f0;fill-opacity:1;fill-rule:evenodd;stroke-linecap:round;paint-order:markers stroke fill"
           d="m 81.708984,170.02734 a 1.749995,1.749995 0 0 0 -1.75,1.75 v 43.42774 a 1.749995,1.749995 0 0 0 1.75,1.75 1.749995,1.749995 0 0 0 1.75,-1.75 v -43.42774 a 1.749995,1.749995 0 0 0 -1.75,-1.75 z"
           id="path9327" />
        <path
           style="color:#000000;fill:#f0f0f0;fill-opacity:1;fill-rule:evenodd;stroke-width:3.49999;stroke-linecap:round;paint-order:markers stroke fill"
           d="m 81.708619,171.77753 v 43.42691"
           id="path9324" />
      </g>
      <g
         id="path4784"
         style="fill:#f0f0f0;fill-opacity:1">
        <path
           style="color:#000000;fill:#f0f0f0;fill-opacity:1;fill-rule:evenodd;stroke-linecap:round;paint-order:markers stroke fill"
           d="m 75.724609,170.02734 a 1.749995,1.749995 0 0 0 -1.75,1.75 v 43.42774 a 1.749995,1.749995 0 0 0 1.75,1.75 1.749995,1.749995 0 0 0 1.75,-1.75 v -43.42774 a 1.749995,1.749995 0 0 0 -1.75,-1.75 z"
           id="path9333" />
        <path
           style="color:#000000;fill:#f0f0f0;fill-opacity:1;fill-rule:evenodd;stroke-width:3.49999;stroke-linecap:round;paint-order:markers stroke fill"
           d="m 75.725359,171.77753 v 43.42691"
           id="path9330" />
      </g>
      <g
         id="path4786"
         style="fill:#f0f0f0;fill-opacity:1">
        <path
           style="color:#000000;fill:#f0f0f0;fill-opacity:1;fill-rule:evenodd;stroke-linecap:round;paint-order:markers stroke fill"
           d="m 70.128906,170.02734 a 1.749995,1.749995 0 0 0 -1.75,1.75 v 43.42774 a 1.749995,1.749995 0 0 0 1.75,1.75 1.749995,1.749995 0 0 0 1.75,-1.75 v -43.42774 a 1.749995,1.749995 0 0 0 -1.75,-1.75 z"
           id="path9339" />
        <path
           style="color:#000000;fill:#f0f0f0;fill-opacity:1;fill-rule:evenodd;stroke-width:3.49999;stroke-linecap:round;paint-order:markers stroke fill"
           d="m 70.128109,171.77753 v 43.42691"
           id="path9336" />
      </g>
      <g
         id="path4788"
         style="fill:#f0f0f0;fill-opacity:1">
        <path
           style="color:#000000;fill:#f0f0f0;fill-opacity:1;fill-rule:evenodd;stroke-linecap:round;paint-order:markers stroke fill"
           d="m 64.337891,169.91016 a 1.6230299,1.6230299 0 0 0 -1.623047,1.62304 v 37.35352 a 1.6230299,1.6230299 0 0 0 1.623047,1.62305 1.6230299,1.6230299 0 0 0 1.623046,-1.62305 V 171.5332 a 1.6230299,1.6230299 0 0 0 -1.623046,-1.62304 z"
           id="path9345" />
        <path
           style="color:#000000;fill:#f0f0f0;fill-opacity:1;fill-rule:evenodd;stroke-width:3.24606;stroke-linecap:round;paint-order:markers stroke fill"
           d="m 64.337859,171.53281 v 37.35406"
           id="path9342" />
      </g>
    </g>
  </g>
</svg>
