<?xml version="1.0" encoding="UTF-8" standalone="no"?>
<!-- Created with Inkscape (http://www.inkscape.org/) -->

<svg
   width="800mm"
   height="600mm"
   viewBox="0 0 800 600"
   version="1.1"
   id="svg5"
   inkscape:version="1.2 (dc2aedaf03, 2022-05-15)"
   sodipodi:docname="logo_alferi_hotel_icone.svg"
   inkscape:export-filename="logo_alferi_hotel.webp"
   inkscape:export-xdpi="100"
   inkscape:export-ydpi="100"
   xml:space="preserve"
   xmlns:inkscape="http://www.inkscape.org/namespaces/inkscape"
   xmlns:sodipodi="http://sodipodi.sourceforge.net/DTD/sodipodi-0.dtd"
   xmlns="http://www.w3.org/2000/svg"
   xmlns:svg="http://www.w3.org/2000/svg"><sodipodi:namedview
     id="namedview7"
     pagecolor="#505050"
     bordercolor="#eeeeee"
     borderopacity="1"
     inkscape:showpageshadow="0"
     inkscape:pageopacity="0"
     inkscape:pagecheckerboard="0"
     inkscape:deskcolor="#505050"
     inkscape:document-units="mm"
     showgrid="false"
     showguides="true"
     inkscape:zoom="0.093544335"
     inkscape:cx="1753.1794"
     inkscape:cy="930.04029"
     inkscape:window-width="1304"
     inkscape:window-height="745"
     inkscape:window-x="-8"
     inkscape:window-y="-8"
     inkscape:window-maximized="1"
     inkscape:current-layer="layer1" /><defs
     id="defs2" /><g
     inkscape:label="Camada 1"
     inkscape:groupmode="layer"
     id="layer1"><g
       aria-label="Alferi Hotel"
       id="text3147"
       style="font-size:28.9012px;font-family:DFGothic-EB;-inkscape-font-specification:DFGothic-EB;letter-spacing:3.0771px;white-space:pre;fill:#f0f0f0;fill-opacity:1;fill-rule:evenodd;stroke-width:9.55184;stroke-linecap:square;paint-order:markers stroke fill"
       transform="matrix(9.3544936,0,0,9.3544936,1600.9216,-2365.8459)"><path
         d="m 20.644765,142.89345 h 0.945499 l 7.493426,19.09342 q 0.451581,1.15717 1.84866,1.15717 h 0.649149 v 1.0584 h -8.32603 v -1.0584 h 0.66326 q 1.298296,0 1.834549,-0.28223 0.36691,-0.19757 0.36691,-0.60682 0,-0.2399 -0.09878,-0.50802 l -1.735766,-4.43115 h -8.241358 l -0.973722,2.54015 q -0.381021,1.01606 -0.381021,1.60876 0,0.69148 0.635036,1.1854 0.649148,0.49391 1.876884,0.49391 h 0.705596 v 1.0584 h -7.563986 v -1.0584 q 1.213625,0 1.919221,-0.52214 0.705595,-0.53625 1.298296,-2.018 z m -0.409245,4.02189 -3.739657,9.29976 h 7.380531 z"
         style="-inkscape-font-specification:Century;fill:#f0f0f0;fill-opacity:1;stroke-width:9.55174"
         id="path9195" /><path
         d="m 40.430373,143.09102 v 19.16397 q 0,0.39514 0.239902,0.60682 0.352798,0.28223 0.860827,0.28223 h 1.397079 v 1.0584 h -7.479314 v -1.0584 h 1.32652 q 0.649148,0 0.95961,-0.31046 0.324574,-0.31046 0.324574,-0.87494 v -16.08758 q 0,-0.70559 -0.381022,-1.03017 -0.52214,-0.45158 -1.284184,-0.45158 h -1.185401 v -1.05839 z"
         style="-inkscape-font-specification:Century;fill:#f0f0f0;fill-opacity:1;stroke-width:9.55174"
         id="path9192" /><path
         d="m 52.143964,150.97958 h 3.302188 v 1.22773 h -3.302188 v 9.65255 q 0,0.66326 0.310463,0.93139 0.423357,0.35279 1.1854,0.35279 h 1.806325 v 1.0584 h -8.100238 v -1.0584 h 1.114841 q 0.747931,0 1.044282,-0.25401 0.29635,-0.25401 0.29635,-0.79027 v -9.89245 h -2.28613 v -1.22773 h 2.28613 v -0.98784 q 0,-3.49975 1.453527,-5.3343 1.453527,-1.84866 3.598538,-1.84866 1.594646,0 2.483697,0.77615 0.903162,0.77616 0.903162,2.03212 0,0.81849 -0.437469,1.29829 -0.423358,0.4657 -1.086617,0.4657 -0.592701,0 -0.987834,-0.38102 -0.381022,-0.38103 -0.381022,-0.95961 0,-0.66326 0.508029,-1.08662 0.409245,-0.33869 0.409245,-0.50803 0,-0.2399 -0.324574,-0.43747 -0.310462,-0.19757 -0.945498,-0.19757 -1.199513,0 -2.032116,1.07251 -0.818491,1.05839 -0.818491,3.16107 z"
         style="-inkscape-font-specification:Century;fill:#f0f0f0;fill-opacity:1;stroke-width:9.55174"
         id="path9189" /><path
         d="m 72.733948,157.68273 h -9.469094 q 0.07056,3.01995 1.128953,4.2618 1.213624,1.39708 3.090509,1.39708 2.765935,0 4.445253,-3.14696 l 0.917274,0.39514 q -2.060339,4.00778 -5.955227,4.00778 -2.65304,0 -4.473477,-1.91922 -1.806325,-1.91922 -1.806325,-4.91094 0,-3.21752 1.778101,-5.19319 1.792213,-1.98978 4.402917,-1.98978 1.91922,0 3.3163,0.98784 1.397079,0.98783 2.102675,2.83649 0.493917,1.2983 0.522141,3.27396 z m -9.469094,-1.00194 h 5.729437 q 0.508029,0 0.790267,-0.33869 0.282238,-0.3528 0.282238,-1.1854 0,-1.55231 -0.973722,-2.63893 -0.95961,-1.08661 -2.272018,-1.08661 -1.467639,0 -2.497809,1.3124 -1.016057,1.31241 -1.058393,3.93723 z"
         style="-inkscape-font-specification:Century;fill:#f0f0f0;fill-opacity:1;stroke-width:9.55174"
         id="path9186" /><path
         d="m 77.645599,150.97958 4.755715,-0.23991 v 5.34842 q 0.762044,-2.63893 1.834549,-3.99367 1.072505,-1.35475 2.65304,-1.35475 1.072505,0 1.707541,0.66326 0.649148,0.64915 0.649148,1.74988 0,0.88905 -0.437469,1.38297 -0.423357,0.49391 -1.072505,0.49391 -0.635036,0 -1.03017,-0.42335 -0.381022,-0.42336 -0.381022,-1.14307 0,-0.46569 0.225791,-0.87494 0.211679,-0.36691 0.211679,-0.43747 0,-0.21167 -0.268127,-0.21167 -0.578588,0 -1.312408,0.67737 -1.016058,0.9455 -1.566422,2.59659 -0.846715,2.56837 -0.846715,4.10657 v 2.83649 q 0,0.47981 0.338686,0.73382 0.338686,0.25401 1.157177,0.25401 h 1.679318 v 1.0584 h -8.213134 v -1.0584 h 1.312408 q 0.66326,0 1.001946,-0.25401 0.338686,-0.26813 0.338686,-0.63504 v -8.42481 q 0,-0.95961 -0.409246,-1.39708 -0.409245,-0.45158 -1.171289,-0.45158 h -1.157177 z"
         style="-inkscape-font-specification:Century;fill:#f0f0f0;fill-opacity:1;stroke-width:9.55174"
         id="path9183" /><path
         d="m 97.163073,143.09102 q 0.635036,0 1.114841,0.4798 0.479805,0.47981 0.479805,1.12895 0,0.63504 -0.465693,1.10073 -0.465694,0.4657 -1.114842,0.4657 -0.649148,0 -1.128953,-0.4657 -0.465693,-0.4798 -0.465693,-1.11484 0,-0.63503 0.479805,-1.11484 0.479805,-0.4798 1.10073,-0.4798 z m -3.654986,7.88856 5.249632,-0.15524 v 11.37421 q 0,0.46569 0.22579,0.66326 0.324574,0.28223 0.818491,0.28223 h 1.49586 v 1.0584 h -7.507535 v -1.0584 h 1.39708 q 0.620924,0 0.903162,-0.29635 0.29635,-0.31046 0.29635,-0.88905 v -8.32603 q 0,-0.79026 -0.451581,-1.1854 -0.451581,-0.40924 -1.340632,-0.40924 h -1.086617 z"
         style="-inkscape-font-specification:Century;fill:#f0f0f0;fill-opacity:1;stroke-width:9.55174"
         id="path9180" /><path
         d="m 117.45741,143.33092 h 8.90462 v 1.05839 h -1.63698 q -0.86083,0 -1.12896,0.31046 -0.25401,0.29635 -0.25401,1.46764 v 6.43504 h 9.55376 v -6.43504 q 0,-1.21362 -0.25401,-1.49586 -0.2399,-0.28224 -1.15718,-0.28224 h -1.52408 v -1.05839 h 8.86228 v 1.05839 h -1.62287 q -0.60681,0 -0.86083,0.15523 -0.2399,0.15523 -0.39513,0.53626 -0.0847,0.2399 -0.0847,1.25596 v 15.01507 q 0,1.08662 0.18345,1.31241 0.36691,0.4798 1.34063,0.4798 h 1.43942 v 1.0584 h -8.86228 v -1.0584 h 1.52408 q 0.90317,0 1.22774,-0.49391 0.18345,-0.26813 0.18345,-1.41119 v -7.25353 h -9.55376 v 7.36642 q 0,1.10073 0.16934,1.32652 0.3528,0.46569 1.21363,0.46569 h 1.63698 v 1.0584 h -8.90462 v -1.0584 h 1.70754 q 0.45158,0 0.71971,-0.18345 0.26813,-0.18345 0.39513,-0.52214 0.0706,-0.22579 0.0706,-1.19951 v -15.07153 q 0,-1.17129 -0.26812,-1.46764 -0.25402,-0.31046 -1.12896,-0.31046 h -1.49586 z"
         style="-inkscape-font-specification:Century;fill:#f0f0f0;fill-opacity:1;stroke-width:9.55174"
         id="path9177" /><path
         d="m 150.43766,150.58444 q 2.66715,0 4.47348,1.93333 1.82044,1.91922 1.82044,5.06618 0,2.17324 -0.8185,3.71143 -0.80437,1.52409 -2.31435,2.41314 -1.49586,0.88905 -3.23163,0.88905 -2.56837,0 -4.36058,-1.94744 -1.7781,-1.94745 -1.7781,-5.05207 0,-3.11873 1.79221,-5.06617 1.79222,-1.94745 4.41703,-1.94745 z m 0,1.00195 q -1.58053,0 -2.59659,1.43941 -1.01606,1.42531 -1.01606,4.51582 0,3.14695 1.00195,4.60048 1.01606,1.45353 2.6107,1.45353 1.6511,0 2.66715,-1.45353 1.03017,-1.45353 1.03017,-4.75572 0,-3.06228 -1.01605,-4.43114 -1.00195,-1.36885 -2.68127,-1.36885 z"
         style="-inkscape-font-specification:Century;fill:#f0f0f0;fill-opacity:1;stroke-width:9.55174"
         id="path9174" /><path
         d="m 165.19942,145.58882 h 0.95961 v 5.39076 h 4.27591 v 1.29829 h -4.27591 v 8.48126 q 0,1.10073 0.52214,1.69343 0.52214,0.57859 1.32652,0.57859 0.95961,0 1.63698,-0.88905 0.67738,-0.88905 0.79027,-2.93528 h 0.9455 q -0.0847,2.63893 -1.19951,3.92311 -1.11484,1.27008 -2.89294,1.27008 -1.63699,0 -2.56837,-0.88906 -0.91728,-0.90316 -0.91728,-2.35669 v -8.87639 h -2.30024 v -0.98783 q 1.56642,-0.26813 2.38491,-1.31241 1.21363,-1.56642 1.31241,-4.38881 z"
         style="-inkscape-font-specification:Century;fill:#f0f0f0;fill-opacity:1;stroke-width:9.55174"
         id="path9171" /><path
         d="m 188.45656,157.68273 h -9.4691 q 0.0706,3.01995 1.12896,4.2618 1.21362,1.39708 3.09051,1.39708 2.76593,0 4.44525,-3.14696 l 0.91727,0.39514 q -2.06034,4.00778 -5.95522,4.00778 -2.65304,0 -4.47348,-1.91922 -1.80633,-1.91922 -1.80633,-4.91094 0,-3.21752 1.77811,-5.19319 1.79221,-1.98978 4.40291,-1.98978 1.91922,0 3.3163,0.98784 1.39708,0.98783 2.10268,2.83649 0.49391,1.2983 0.52214,3.27396 z m -9.4691,-1.00194 h 5.72944 q 0.50803,0 0.79027,-0.33869 0.28224,-0.3528 0.28224,-1.1854 0,-1.55231 -0.97373,-2.63893 -0.95961,-1.08661 -2.27201,-1.08661 -1.46764,0 -2.49781,1.3124 -1.01606,1.31241 -1.0584,3.93723 z"
         style="-inkscape-font-specification:Century;fill:#f0f0f0;fill-opacity:1;stroke-width:9.55174"
         id="path9168" /><path
         d="m 198.56139,143.09102 v 19.16397 q 0,0.39514 0.2399,0.60682 0.3528,0.28223 0.86083,0.28223 h 1.39708 v 1.0584 h -7.47932 v -1.0584 h 1.32652 q 0.64915,0 0.95961,-0.31046 0.32457,-0.31046 0.32457,-0.87494 v -16.08758 q 0,-0.70559 -0.38102,-1.03017 -0.52214,-0.45158 -1.28418,-0.45158 h -1.1854 v -1.05839 z"
         style="-inkscape-font-specification:Century;fill:#f0f0f0;fill-opacity:1;stroke-width:9.55174"
         id="path9165" /></g><g
       id="g3379"
       transform="translate(36.994918,-0.52916667)"><path
         id="path9137"
         style="color:#000000;fill:#f0f0f0;fill-opacity:1;fill-rule:evenodd;stroke-width:2.90092;stroke-linecap:square;paint-order:markers stroke fill"
         d="m 351.7176,27.898297 c -8.00084,0.02663 -15.97218,2.404245 -21.39872,7.057497 L 41.111509,282.95067 c 16.282062,3.5934 64.721551,4.05996 79.658371,5.1584 L 351.81109,90.120433 585.42347,290.31373 c 0.11186,-0.002 0.22037,-0.007 0.33325,-0.008 2.40399,-0.0148 4.80216,0.2106 7.19774,0.38453 2.81633,0.15461 5.63199,0.32285 8.44788,0.48558 0.70709,-2.39605 -0.778,-4.18443 -6.62619,-4.66729 -0.0366,-0.003 -0.14647,-0.007 -0.11004,-0.009 3.66845,-0.23345 7.35432,-0.25292 11.0281,-0.32121 1.6992,-0.0419 3.39951,-0.0628 5.09859,-0.0663 5.09727,-0.0105 10.19321,0.13452 15.28674,0.33478 3.80024,0.18374 7.60376,0.30586 11.4036,0.49614 2.16513,0.10406 4.32701,0.27288 6.48294,0.49613 2.2768,0.33633 4.56708,0.54391 6.85544,0.78116 3.2488,0.40293 6.50714,0.69984 9.77495,0.89275 2.15435,0.10364 4.30873,0.20483 6.46333,0.29858 -1.32074,-2.85478 -3.19479,-5.45935 -5.66863,-7.57929 L 373.30333,34.955822 c -5.55259,-4.758256 -13.58484,-7.084116 -21.58571,-7.057507 z M 583.32241,291.55106 351.81109,510.37962 128.59623,291.77895 39.730523,289.20929 330.31889,565.54274 c 5.11493,4.38321 13.36027,6.57576 21.59721,6.55907 8.15359,-0.0166 16.29897,-2.19789 21.39173,-6.56209 L 666.15455,294.14785 c -27.62947,0.57587 -55.8681,-2.47594 -82.83214,-2.59726 z"
         sodipodi:nodetypes="ssccccccccccsccccccccsscccccscccc" /><path
         id="path9140"
         style="color:#000000;fill:#f0f0f0;fill-opacity:1;fill-rule:evenodd;stroke-width:2.91818;stroke-linecap:round;paint-order:markers stroke fill"
         d="m 351.83824,128.00022 c -99.96416,0 -184.37772,68.49058 -208.75881,160.95782 0.28202,5.5e-4 0.56396,7.8e-4 0.846,0.001 3.01583,0.009 6.03232,0.0233 9.04808,0.0467 6.1161,0.0479 12.23173,0.10651 18.34649,0.24892 7.38667,0.18764 14.7703,0.46799 22.15121,0.81583 0.0125,4.7e-4 0.0251,10e-4 0.0377,0.002 22.29338,-66.03865 84.5772,-113.33476 158.32933,-113.33475 73.97124,0 136.40316,47.57963 158.52387,113.92589 1.27267,0.0872 2.54497,0.17917 3.81678,0.28189 6.60189,0.51363 15.37284,-0.5682 21.98685,-0.23374 7.05544,0.35129 5.16553,-2.32688 12.20886,-1.76737 1.49376,0.0983 6.00361,2.26395 9.51255,3.70066 0.30428,-0.15057 0.61632,-0.2886 0.92442,-0.4313 0.0949,-0.0406 0.29632,-0.14183 0.51273,-0.23813 -1.84531,-2.94211 -6.96944,-5.38303 -16.7631,-7.10423 -0.63018,-0.11089 -1.29544,-0.0981 -1.89104,-0.33177 -0.11819,-0.0464 -0.11498,-0.0622 -0.0347,-0.0589 0.24075,0.009 1.1685,0.19289 1.54571,0.24279 0.81855,0.10826 1.63409,0.23812 2.45352,0.3393 2.70524,0.33439 5.43191,0.56513 8.14328,0.84148 2.40099,0.27373 4.79927,0.56447 7.19776,0.85807 C 534.84748,195.4123 451.00732,128.0002 351.8397,128.0002 Z M 141.29545,383.84223 c -0.52485,7.9e-4 -1.04937,0.006 -1.57436,0.0146 18.83599,99.91701 106.85227,175.8645 212.11715,175.8645 104.49492,-3e-5 191.98715,-74.84368 211.68585,-173.67939 -1.2296,0.002 -2.45924,0.002 -3.68858,0.009 -2.56675,0.0146 -5.13373,0.033 -7.69992,0.0905 -3.10626,0.0744 -6.21039,0.18413 -9.31199,0.37396 -4.83248,0.27781 -9.66613,0.52498 -14.50559,0.64696 -5.02397,0.11907 -10.04987,0.14941 -15.0756,0.1462 -19.03382,71.38182 -83.86105,123.68271 -161.40417,123.68274 -78.27331,0 -143.62858,-53.27691 -161.97118,-125.68989 -2.91297,0.10856 -5.82649,0.20427 -8.74196,0.12665 -3.81948,-0.0476 -7.63946,-0.1249 -11.45638,-0.27752 -4.76836,-0.19873 -9.53325,-0.45556 -14.29144,-0.82941 -4.69056,-0.24979 -9.38379,-0.485 -14.08183,-0.47803 z"
         inkscape:export-filename="logo4.png"
         inkscape:export-xdpi="300"
         inkscape:export-ydpi="300" /><g
         id="g4744"
         style="fill:#f0f0f0;fill-opacity:1"
         transform="matrix(2.9181839,0,0,2.9181839,41.667045,-112.38464)"><g
           id="path4664"
           style="fill:#f0f0f0;fill-opacity:1"><path
             style="color:#000000;fill:#f0f0f0;fill-opacity:1;fill-rule:evenodd;stroke-linecap:round;paint-order:markers stroke fill"
             d="m 158.59375,127.65039 -51.58789,7.91602 a 1.75,1.75 0 0 0 -1.46484,1.99609 1.75,1.75 0 0 0 1.99609,1.46289 l 51.58789,-7.91406 a 1.75,1.75 0 0 0 1.46484,-1.9961 1.75,1.75 0 0 0 -1.99609,-1.46484 z"
             id="path9131" /><path
             style="color:#000000;fill:#f0f0f0;fill-opacity:1;fill-rule:evenodd;stroke-width:3.5;stroke-linecap:round;paint-order:markers stroke fill"
             d="m 107.27139,137.29646 51.58853,-7.9157"
             id="path9128" /></g><g
           id="path4729"
           inkscape:transform-center-x="-25.382874"
           inkscape:transform-center-y="-9.1045399"
           style="fill:#f0f0f0;fill-opacity:1"><path
             style="color:#000000;fill:#f0f0f0;fill-opacity:1;fill-rule:evenodd;stroke-linecap:round;paint-order:markers stroke fill"
             d="m 155.39844,116.58203 -48.66406,18.86328 a 1.75,1.75 0 0 0 -1,2.26367 1.75,1.75 0 0 0 2.26562,1 l 48.66406,-18.86328 a 1.75,1.75 0 0 0 0.99805,-2.26367 1.75,1.75 0 0 0 -2.26367,-1 z"
             id="path9125" /><path
             style="color:#000000;fill:#f0f0f0;fill-opacity:1;fill-rule:evenodd;stroke-width:3.5;stroke-linecap:round;paint-order:markers stroke fill"
             d="M 107.36669,137.07742 156.03115,118.2146"
             id="path9122" /></g><g
           id="path4731"
           inkscape:transform-center-x="-22.631514"
           inkscape:transform-center-y="-14.66279"
           style="fill:#f0f0f0;fill-opacity:1"><path
             style="color:#000000;fill:#f0f0f0;fill-opacity:1;fill-rule:evenodd;stroke-linecap:round;paint-order:markers stroke fill"
             d="m 150.80273,105.62695 a 1.75,1.75 0 0 0 -1.31054,0.27539 l -43.06641,29.48243 a 1.75,1.75 0 0 0 -0.45703,2.43164 1.75,1.75 0 0 0 2.43359,0.45703 l 43.06836,-29.48242 a 1.75,1.75 0 0 0 0.45508,-2.4336 1.75,1.75 0 0 0 -1.12305,-0.73047 z"
             id="path9119" /><path
             style="color:#000000;fill:#f0f0f0;fill-opacity:1;fill-rule:evenodd;stroke-width:3.5;stroke-linecap:round;paint-order:markers stroke fill"
             d="m 107.41358,136.82874 43.06796,-29.48196"
             id="path9116" /></g><g
           id="path4733"
           inkscape:transform-center-x="-17.747089"
           inkscape:transform-center-y="-20.303288"
           style="fill:#f0f0f0;fill-opacity:1"><path
             style="color:#000000;fill:#f0f0f0;fill-opacity:1;fill-rule:evenodd;stroke-linecap:round;paint-order:markers stroke fill"
             d="m 141.85156,95.023437 a 1.75,1.75 0 0 0 -2.46484,0.228516 l -33.33984,40.154297 a 1.75,1.75 0 0 0 0.22851,2.46484 1.75,1.75 0 0 0 2.46484,-0.22851 l 33.33985,-40.154299 a 1.75,1.75 0 0 0 -0.22852,-2.464844 z"
             id="path9113" /><path
             style="color:#000000;fill:#f0f0f0;fill-opacity:1;fill-rule:evenodd;stroke-width:3.5;stroke-linecap:round;paint-order:markers stroke fill"
             d="M 107.39299,136.52499 140.73328,96.369535"
             id="path9110" /></g><g
           id="path4735"
           inkscape:transform-center-x="-9.441174"
           inkscape:transform-center-y="-25.259592"
           style="fill:#f0f0f0;fill-opacity:1"><path
             style="color:#000000;fill:#f0f0f0;fill-opacity:1;fill-rule:evenodd;stroke-linecap:round;paint-order:markers stroke fill"
             d="m 124.8418,85.167969 a 1.75,1.75 0 0 0 -2.22657,1.083984 l -17.02539,49.335937 a 1.75,1.75 0 0 0 1.08399,2.22656 1.75,1.75 0 0 0 2.22461,-1.08398 l 17.02539,-49.337892 a 1.75,1.75 0 0 0 -1.08203,-2.224609 z"
             id="path9107" /><path
             style="color:#000000;fill:#f0f0f0;fill-opacity:1;fill-rule:evenodd;stroke-width:3.5;stroke-linecap:round;paint-order:markers stroke fill"
             d="m 107.24412,136.15948 17.0262,-49.337042"
             id="path9104" /></g></g><g
         id="path4737"
         inkscape:transform-center-x="-0.7637581"
         inkscape:transform-center-y="-25.971304"
         style="fill:#f0f0f0;fill-opacity:1"
         transform="matrix(2.9181839,0,0,2.9181839,41.667045,-112.38464)"><path
           style="color:#000000;fill:#f0f0f0;fill-opacity:1;fill-rule:evenodd;stroke-linecap:round;paint-order:markers stroke fill"
           d="m 107.10938,83.859375 a 1.74817,1.74817 0 0 0 -1.75196,1.744141 l -0.10547,50.285154 a 1.74817,1.74817 0 0 0 1.74414,1.75195 1.74817,1.74817 0 0 0 1.75196,-1.74414 l 0.10742,-50.285152 a 1.74817,1.74817 0 0 0 -1.74609,-1.751953 z"
           id="path9038" /><path
           style="color:#000000;fill:#f0f0f0;fill-opacity:1;fill-rule:evenodd;stroke-width:3.49634;stroke-linecap:round;paint-order:markers stroke fill"
           d="m 107.00039,135.89223 0.1061,-50.285161"
           id="path9035" /></g><g
         id="g4756"
         transform="matrix(-2.9181839,0,0,2.9181839,665.27314,-112.38464)"
         style="fill:#f0f0f0;fill-opacity:1"><g
           id="path4746"
           style="fill:#f0f0f0;fill-opacity:1"><path
             style="color:#000000;fill:#f0f0f0;fill-opacity:1;fill-rule:evenodd;stroke-linecap:round;paint-order:markers stroke fill"
             d="m 158.59375,127.65039 -51.58789,7.91602 a 1.75,1.75 0 0 0 -1.46484,1.99609 1.75,1.75 0 0 0 1.99609,1.46289 l 51.58789,-7.91406 a 1.75,1.75 0 0 0 1.46484,-1.9961 1.75,1.75 0 0 0 -1.99609,-1.46484 z"
             id="path9101" /><path
             style="color:#000000;fill:#f0f0f0;fill-opacity:1;fill-rule:evenodd;stroke-width:3.5;stroke-linecap:round;paint-order:markers stroke fill"
             d="m 107.27139,137.29646 51.58853,-7.9157"
             id="path9098" /></g><g
           id="path4748"
           inkscape:transform-center-x="-25.382874"
           inkscape:transform-center-y="-9.1045399"
           style="fill:#f0f0f0;fill-opacity:1"><path
             style="color:#000000;fill:#f0f0f0;fill-opacity:1;fill-rule:evenodd;stroke-linecap:round;paint-order:markers stroke fill"
             d="m 155.39844,116.58203 -48.66406,18.86328 a 1.75,1.75 0 0 0 -1,2.26367 1.75,1.75 0 0 0 2.26562,1 l 48.66406,-18.86328 a 1.75,1.75 0 0 0 0.99805,-2.26367 1.75,1.75 0 0 0 -2.26367,-1 z"
             id="path9095" /><path
             style="color:#000000;fill:#f0f0f0;fill-opacity:1;fill-rule:evenodd;stroke-width:3.5;stroke-linecap:round;paint-order:markers stroke fill"
             d="M 107.36669,137.07742 156.03115,118.2146"
             id="path9092" /></g><g
           id="path4750"
           inkscape:transform-center-x="-22.631514"
           inkscape:transform-center-y="-14.66279"
           style="fill:#f0f0f0;fill-opacity:1"><path
             style="color:#000000;fill:#f0f0f0;fill-opacity:1;fill-rule:evenodd;stroke-linecap:round;paint-order:markers stroke fill"
             d="m 150.80273,105.62695 a 1.75,1.75 0 0 0 -1.31054,0.27539 l -43.06641,29.48243 a 1.75,1.75 0 0 0 -0.45703,2.43164 1.75,1.75 0 0 0 2.43359,0.45703 l 43.06836,-29.48242 a 1.75,1.75 0 0 0 0.45508,-2.4336 1.75,1.75 0 0 0 -1.12305,-0.73047 z"
             id="path9089" /><path
             style="color:#000000;fill:#f0f0f0;fill-opacity:1;fill-rule:evenodd;stroke-width:3.5;stroke-linecap:round;paint-order:markers stroke fill"
             d="m 107.41358,136.82874 43.06796,-29.48196"
             id="path9086" /></g><g
           id="path4752"
           inkscape:transform-center-x="-17.747089"
           inkscape:transform-center-y="-20.303288"
           style="fill:#f0f0f0;fill-opacity:1"><path
             style="color:#000000;fill:#f0f0f0;fill-opacity:1;fill-rule:evenodd;stroke-linecap:round;paint-order:markers stroke fill"
             d="m 141.85156,95.023437 a 1.75,1.75 0 0 0 -2.46484,0.228516 l -33.33984,40.154297 a 1.75,1.75 0 0 0 0.22851,2.46484 1.75,1.75 0 0 0 2.46484,-0.22851 l 33.33985,-40.154299 a 1.75,1.75 0 0 0 -0.22852,-2.464844 z"
             id="path9083" /><path
             style="color:#000000;fill:#f0f0f0;fill-opacity:1;fill-rule:evenodd;stroke-width:3.5;stroke-linecap:round;paint-order:markers stroke fill"
             d="M 107.39299,136.52499 140.73328,96.369535"
             id="path9080" /></g><g
           id="path4754"
           inkscape:transform-center-x="-9.441174"
           inkscape:transform-center-y="-25.259592"
           style="fill:#f0f0f0;fill-opacity:1"><path
             style="color:#000000;fill:#f0f0f0;fill-opacity:1;fill-rule:evenodd;stroke-linecap:round;paint-order:markers stroke fill"
             d="m 124.8418,85.167969 a 1.75,1.75 0 0 0 -2.22657,1.083984 l -17.02539,49.335937 a 1.75,1.75 0 0 0 1.08399,2.22656 1.75,1.75 0 0 0 2.22461,-1.08398 l 17.02539,-49.337892 a 1.75,1.75 0 0 0 -1.08203,-2.224609 z"
             id="path9077" /><path
             style="color:#000000;fill:#f0f0f0;fill-opacity:1;fill-rule:evenodd;stroke-width:3.5;stroke-linecap:round;paint-order:markers stroke fill"
             d="m 107.24412,136.15948 17.0262,-49.337042"
             id="path9074" /></g></g><g
         id="path4758"
         style="fill:#f0f0f0;fill-opacity:1"
         transform="matrix(2.9181839,0,0,4.874774,41.667045,-536.8768)"><path
           style="color:#000000;fill:#f0f0f0;fill-opacity:1;fill-rule:evenodd;stroke-linecap:round;paint-order:markers stroke fill"
           d="m 106.1543,170.02734 a 1.749995,1.749995 0 0 0 -1.75,1.75 v 43.42774 a 1.749995,1.749995 0 0 0 1.75,1.75 1.749995,1.749995 0 0 0 1.75,-1.75 v -43.42774 a 1.749995,1.749995 0 0 0 -1.75,-1.75 z"
           id="path9303" /><path
           style="color:#000000;fill:#f0f0f0;fill-opacity:1;fill-rule:evenodd;stroke-width:3.49999;stroke-linecap:round;paint-order:markers stroke fill"
           d="m 106.15466,171.77753 v 43.42691"
           id="path9350" /></g><g
         id="path4760"
         style="fill:#f0f0f0;fill-opacity:1"
         transform="matrix(2.9181839,0,0,4.874774,41.667045,-536.8768)"><path
           style="color:#000000;fill:#f0f0f0;fill-opacity:1;fill-rule:evenodd;stroke-linecap:round;paint-order:markers stroke fill"
           d="m 112.13867,170.02734 a 1.749995,1.749995 0 0 0 -1.75,1.75 v 43.42774 a 1.749995,1.749995 0 0 0 1.75,1.75 1.749995,1.749995 0 0 0 1.75,-1.75 v -43.42774 a 1.749995,1.749995 0 0 0 -1.75,-1.75 z"
           id="path9297" /><path
           style="color:#000000;fill:#f0f0f0;fill-opacity:1;fill-rule:evenodd;stroke-width:3.49999;stroke-linecap:round;paint-order:markers stroke fill"
           d="m 112.13792,171.77753 v 43.42691"
           id="path9294" /></g><g
         id="path4762"
         style="fill:#f0f0f0;fill-opacity:1"
         transform="matrix(2.9181839,0,0,4.874774,41.667045,-536.8768)"><path
           style="color:#000000;fill:#f0f0f0;fill-opacity:1;fill-rule:evenodd;stroke-linecap:round;paint-order:markers stroke fill"
           d="m 118.50781,170.02734 a 1.749995,1.749995 0 0 0 -1.75,1.75 v 43.42774 a 1.749995,1.749995 0 0 0 1.75,1.75 1.749995,1.749995 0 0 0 1.75,-1.75 v -43.42774 a 1.749995,1.749995 0 0 0 -1.75,-1.75 z"
           id="path9291" /><path
           style="color:#000000;fill:#f0f0f0;fill-opacity:1;fill-rule:evenodd;stroke-width:3.49999;stroke-linecap:round;paint-order:markers stroke fill"
           d="m 118.5072,171.77753 v 43.42691"
           id="path9288" /></g><path
         style="color:#000000;fill:#f0f0f0;fill-opacity:1;fill-rule:evenodd;stroke-width:3.77166;stroke-linecap:round;paint-order:markers stroke fill"
         d="m 405.51669,291.96806 a 5.1068072,8.5308301 0 0 0 -5.10682,8.53085 v 211.70042 a 5.1068072,8.5308301 0 0 0 5.10682,8.53085 5.1068072,8.5308301 0 0 0 5.10682,-8.53085 V 300.49891 a 5.1068072,8.5308301 0 0 0 -5.10682,-8.53085 z"
         id="path9285" /><path
         style="color:#000000;fill:#f0f0f0;fill-opacity:1;fill-rule:evenodd;stroke-width:13.2008;stroke-linecap:round;paint-order:markers stroke fill"
         d="M 405.51634,300.49983 V 512.1962"
         id="path9282" /><g
         id="path4766"
         style="fill:#f0f0f0;fill-opacity:1"
         transform="matrix(2.9181839,0,0,4.874774,41.667045,-536.8768)"><path
           style="color:#000000;fill:#f0f0f0;fill-opacity:1;fill-rule:evenodd;stroke-linecap:round;paint-order:markers stroke fill"
           d="m 130.66602,170.02734 a 1.749995,1.749995 0 0 0 -1.75,1.75 v 43.42774 a 1.749995,1.749995 0 0 0 1.75,1.75 1.749995,1.749995 0 0 0 1.75,-1.75 v -43.42774 a 1.749995,1.749995 0 0 0 -1.75,-1.75 z"
           id="path9279" /><path
           style="color:#000000;fill:#f0f0f0;fill-opacity:1;fill-rule:evenodd;stroke-width:3.49999;stroke-linecap:round;paint-order:markers stroke fill"
           d="m 130.66673,171.77753 v 43.42691"
           id="path9276" /></g><g
         id="path4768"
         style="fill:#f0f0f0;fill-opacity:1"
         transform="matrix(2.9181839,0,0,4.874774,41.667045,-536.8768)"><path
           style="color:#000000;fill:#f0f0f0;fill-opacity:1;fill-rule:evenodd;stroke-linecap:round;paint-order:markers stroke fill"
           d="m 136.65039,170.02734 a 1.749995,1.749995 0 0 0 -1.75,1.75 v 43.42774 a 1.749995,1.749995 0 0 0 1.75,1.75 1.749995,1.749995 0 0 0 1.75,-1.75 v -43.42774 a 1.749995,1.749995 0 0 0 -1.75,-1.75 z"
           id="path9273" /><path
           style="color:#000000;fill:#f0f0f0;fill-opacity:1;fill-rule:evenodd;stroke-width:3.49999;stroke-linecap:round;paint-order:markers stroke fill"
           d="m 136.64999,171.77753 v 43.42691"
           id="path9270" /></g><g
         id="path4770"
         style="fill:#f0f0f0;fill-opacity:1"
         transform="matrix(2.9181839,0,0,4.874774,41.667045,-536.8768)"><path
           style="color:#000000;fill:#f0f0f0;fill-opacity:1;fill-rule:evenodd;stroke-linecap:round;paint-order:markers stroke fill"
           d="m 142.24805,170.02734 a 1.749995,1.749995 0 0 0 -1.75,1.75 v 43.42774 a 1.749995,1.749995 0 0 0 1.75,1.75 1.749995,1.749995 0 0 0 1.75,-1.75 v -43.42774 a 1.749995,1.749995 0 0 0 -1.75,-1.75 z"
           id="path8996" /><path
           style="color:#000000;fill:#f0f0f0;fill-opacity:1;fill-rule:evenodd;stroke-width:3.49999;stroke-linecap:round;paint-order:markers stroke fill"
           d="m 142.24724,171.77753 v 43.42691"
           id="path8993" /></g><g
         id="path4772"
         style="fill:#f0f0f0;fill-opacity:1"
         transform="matrix(2.9181839,0,0,4.874774,41.667045,-536.8768)"><path
           style="color:#000000;fill:#f0f0f0;fill-opacity:1;fill-rule:evenodd;stroke-linecap:round;paint-order:markers stroke fill"
           d="m 142.24805,170.02734 a 1.749995,1.749995 0 0 0 -1.75,1.75 v 43.42774 a 1.749995,1.749995 0 0 0 1.75,1.75 1.749995,1.749995 0 0 0 1.75,-1.75 v -43.42774 a 1.749995,1.749995 0 0 0 -1.75,-1.75 z"
           id="path9261" /><path
           style="color:#000000;fill:#f0f0f0;fill-opacity:1;fill-rule:evenodd;stroke-width:3.49999;stroke-linecap:round;paint-order:markers stroke fill"
           d="m 142.24724,171.77753 v 43.42691"
           id="path9258" /></g><g
         id="path4774"
         style="fill:#f0f0f0;fill-opacity:1"
         transform="matrix(2.9181839,0,0,3.289574,41.667045,-267.53521)"><path
           style="color:#000000;fill:#f0f0f0;fill-opacity:1;fill-rule:evenodd;stroke-linecap:round;paint-order:markers stroke fill"
           d="m 148.03711,169.91016 a 1.6230299,1.6230299 0 0 0 -1.62305,1.62304 v 37.35352 a 1.6230299,1.6230299 0 0 0 1.62305,1.62305 1.6230299,1.6230299 0 0 0 1.62305,-1.62305 V 171.5332 a 1.6230299,1.6230299 0 0 0 -1.62305,-1.62304 z"
           id="path9267" /><path
           style="color:#000000;fill:#f0f0f0;fill-opacity:1;fill-rule:evenodd;stroke-width:3.24606;stroke-linecap:round;paint-order:markers stroke fill"
           d="m 148.03749,171.53281 v 37.35406"
           id="path2190" /></g><g
         id="path4776"
         style="fill:#f0f0f0;fill-opacity:1"
         transform="matrix(2.9181839,0,0,4.874774,41.667045,-536.8768)"><path
           style="color:#000000;fill:#f0f0f0;fill-opacity:1;fill-rule:evenodd;stroke-linecap:round;paint-order:markers stroke fill"
           d="m 100.23828,170.02734 a 1.749995,1.749995 0 0 0 -1.749999,1.75 v 43.42774 a 1.749995,1.749995 0 0 0 1.749999,1.75 1.749995,1.749995 0 0 0 1.75,-1.75 v -43.42774 a 1.749995,1.749995 0 0 0 -1.75,-1.75 z"
           id="path9309" /><path
           style="color:#000000;fill:#f0f0f0;fill-opacity:1;fill-rule:evenodd;stroke-width:3.49999;stroke-linecap:round;paint-order:markers stroke fill"
           d="m 100.23743,171.77753 v 43.42691"
           id="path9306" /></g><g
         id="path4778"
         style="fill:#f0f0f0;fill-opacity:1"
         transform="matrix(2.9181839,0,0,4.874774,41.667045,-536.8768)"><path
           style="color:#000000;fill:#f0f0f0;fill-opacity:1;fill-rule:evenodd;stroke-linecap:round;paint-order:markers stroke fill"
           d="m 93.867187,170.02734 a 1.749995,1.749995 0 0 0 -1.75,1.75 v 43.42774 a 1.749995,1.749995 0 0 0 1.75,1.75 1.749995,1.749995 0 0 0 1.75,-1.75 v -43.42774 a 1.749995,1.749995 0 0 0 -1.75,-1.75 z"
           id="path9315" /><path
           style="color:#000000;fill:#f0f0f0;fill-opacity:1;fill-rule:evenodd;stroke-width:3.49999;stroke-linecap:round;paint-order:markers stroke fill"
           d="m 93.868149,171.77753 v 43.42691"
           id="path9312" /></g><g
         id="path4780"
         style="fill:#f0f0f0;fill-opacity:1"
         transform="matrix(2.9181839,0,0,4.874774,41.667045,-536.8768)"><path
           style="color:#000000;fill:#f0f0f0;fill-opacity:1;fill-rule:evenodd;stroke-linecap:round;paint-order:markers stroke fill"
           d="m 87.691406,170.02734 a 1.749995,1.749995 0 0 0 -1.75,1.75 v 43.42774 a 1.749995,1.749995 0 0 0 1.75,1.75 1.749995,1.749995 0 0 0 1.75,-1.75 v -43.42774 a 1.749995,1.749995 0 0 0 -1.75,-1.75 z"
           id="path9321" /><path
           style="color:#000000;fill:#f0f0f0;fill-opacity:1;fill-rule:evenodd;stroke-width:3.49999;stroke-linecap:round;paint-order:markers stroke fill"
           d="m 87.691879,171.77753 v 43.42691"
           id="path9318" /></g><g
         id="path4782"
         style="fill:#f0f0f0;fill-opacity:1"
         transform="matrix(2.9181839,0,0,4.874774,41.667045,-536.8768)"><path
           style="color:#000000;fill:#f0f0f0;fill-opacity:1;fill-rule:evenodd;stroke-linecap:round;paint-order:markers stroke fill"
           d="m 81.708984,170.02734 a 1.749995,1.749995 0 0 0 -1.75,1.75 v 43.42774 a 1.749995,1.749995 0 0 0 1.75,1.75 1.749995,1.749995 0 0 0 1.75,-1.75 v -43.42774 a 1.749995,1.749995 0 0 0 -1.75,-1.75 z"
           id="path9327" /><path
           style="color:#000000;fill:#f0f0f0;fill-opacity:1;fill-rule:evenodd;stroke-width:3.49999;stroke-linecap:round;paint-order:markers stroke fill"
           d="m 81.708619,171.77753 v 43.42691"
           id="path9324" /></g><g
         id="path4784"
         style="fill:#f0f0f0;fill-opacity:1"
         transform="matrix(2.9181839,0,0,4.874774,41.667045,-536.8768)"><path
           style="color:#000000;fill:#f0f0f0;fill-opacity:1;fill-rule:evenodd;stroke-linecap:round;paint-order:markers stroke fill"
           d="m 75.724609,170.02734 a 1.749995,1.749995 0 0 0 -1.75,1.75 v 43.42774 a 1.749995,1.749995 0 0 0 1.75,1.75 1.749995,1.749995 0 0 0 1.75,-1.75 v -43.42774 a 1.749995,1.749995 0 0 0 -1.75,-1.75 z"
           id="path9333" /><path
           style="color:#000000;fill:#f0f0f0;fill-opacity:1;fill-rule:evenodd;stroke-width:3.49999;stroke-linecap:round;paint-order:markers stroke fill"
           d="m 75.725359,171.77753 v 43.42691"
           id="path9330" /></g><g
         id="path4786"
         style="fill:#f0f0f0;fill-opacity:1"
         transform="matrix(2.9181839,0,0,4.874774,41.667045,-536.8768)"><path
           style="color:#000000;fill:#f0f0f0;fill-opacity:1;fill-rule:evenodd;stroke-linecap:round;paint-order:markers stroke fill"
           d="m 70.128906,170.02734 a 1.749995,1.749995 0 0 0 -1.75,1.75 v 43.42774 a 1.749995,1.749995 0 0 0 1.75,1.75 1.749995,1.749995 0 0 0 1.75,-1.75 v -43.42774 a 1.749995,1.749995 0 0 0 -1.75,-1.75 z"
           id="path9339" /><path
           style="color:#000000;fill:#f0f0f0;fill-opacity:1;fill-rule:evenodd;stroke-width:3.49999;stroke-linecap:round;paint-order:markers stroke fill"
           d="m 70.128109,171.77753 v 43.42691"
           id="path9336" /></g><g
         id="path4788"
         style="fill:#f0f0f0;fill-opacity:1"
         transform="matrix(2.9181839,0,0,4.874774,41.667045,-536.8768)"><path
           style="color:#000000;fill:#f0f0f0;fill-opacity:1;fill-rule:evenodd;stroke-linecap:round;paint-order:markers stroke fill"
           d="m 64.337891,169.91016 a 1.6230299,1.6230299 0 0 0 -1.623047,1.62304 v 37.35352 a 1.6230299,1.6230299 0 0 0 1.623047,1.62305 1.6230299,1.6230299 0 0 0 1.623046,-1.62305 V 171.5332 a 1.6230299,1.6230299 0 0 0 -1.623046,-1.62304 z"
           id="path9345" /><path
           style="color:#000000;fill:#f0f0f0;fill-opacity:1;fill-rule:evenodd;stroke-width:3.24606;stroke-linecap:round;paint-order:markers stroke fill"
           d="m 64.337859,171.53281 v 37.35406"
           id="path9342" /></g><g
         id="path1054"><path
           style="color:#000000;fill:#f0f0f0;fill-rule:evenodd;stroke-linecap:round;-inkscape-stroke:none;paint-order:markers stroke fill"
           d="m 8.2363281,283.06548 c -4.1367974,-0.008 -14.9048236,2.03014 -14.9122396,6.16694 -0.00769,4.13604 29.0031555,7.49542 33.1391925,7.50391 l 636.286729,1.25 c 4.1368,0.008 42.66917,-3.33976 42.67658,-7.47656 0.008,-4.1368 -17.18432,-6.70274 -21.32112,-6.71016 z"
           id="path3036"
           sodipodi:nodetypes="ccccccc" /><path
           style="color:#000000;fill:#000000;fill-rule:evenodd;stroke-width:14.98;stroke-linecap:round;-inkscape-stroke:none;paint-order:markers stroke fill"
           d="M 8.2217535,289.24566 684.0925,290.49629"
           id="path3033" /></g><g
         id="g2936"
         style="fill:#f0f0f0;fill-opacity:1"
         transform="matrix(2.9181839,0,0,3.289574,58.879203,-267.53521)"><path
           style="color:#000000;fill:#f0f0f0;fill-opacity:1;fill-rule:evenodd;stroke-linecap:round;paint-order:markers stroke fill"
           d="m 148.03711,169.91016 a 1.6230299,1.6230299 0 0 0 -1.62305,1.62304 v 37.35352 a 1.6230299,1.6230299 0 0 0 1.62305,1.62305 1.6230299,1.6230299 0 0 0 1.62305,-1.62305 V 171.5332 a 1.6230299,1.6230299 0 0 0 -1.62305,-1.62304 z"
           id="path2932" /><path
           style="color:#000000;fill:#f0f0f0;fill-opacity:1;fill-rule:evenodd;stroke-width:3.24606;stroke-linecap:round;paint-order:markers stroke fill"
           d="m 148.03749,171.53281 v 37.35406"
           id="path2934" /></g><g
         id="g2942"
         style="fill:#f0f0f0;fill-opacity:1"
         transform="matrix(2.9181839,0,0,3.289574,76.091361,-267.53521)"><path
           style="color:#000000;fill:#f0f0f0;fill-opacity:1;fill-rule:evenodd;stroke-linecap:round;paint-order:markers stroke fill"
           d="m 148.03711,169.91016 a 1.6230299,1.6230299 0 0 0 -1.62305,1.62304 v 37.35352 a 1.6230299,1.6230299 0 0 0 1.62305,1.62305 1.6230299,1.6230299 0 0 0 1.62305,-1.62305 V 171.5332 a 1.6230299,1.6230299 0 0 0 -1.62305,-1.62304 z"
           id="path2938" /><path
           style="color:#000000;fill:#f0f0f0;fill-opacity:1;fill-rule:evenodd;stroke-width:3.24606;stroke-linecap:round;paint-order:markers stroke fill"
           d="m 148.03749,171.53281 v 37.35406"
           id="path2940" /></g><g
         id="g2948"
         style="fill:#f0f0f0;fill-opacity:1"
         transform="matrix(2.9181839,0,0,1.8886996,94.051873,-29.512411)"><path
           style="color:#000000;fill:#f0f0f0;fill-opacity:1;fill-rule:evenodd;stroke-linecap:round;paint-order:markers stroke fill"
           d="m 148.03711,169.91016 a 1.6230299,1.6230299 0 0 0 -1.62305,1.62304 v 37.35352 a 1.6230299,1.6230299 0 0 0 1.62305,1.62305 1.6230299,1.6230299 0 0 0 1.62305,-1.62305 V 171.5332 a 1.6230299,1.6230299 0 0 0 -1.62305,-1.62304 z"
           id="path2944" /><path
           style="color:#000000;fill:#f0f0f0;fill-opacity:1;fill-rule:evenodd;stroke-width:3.24606;stroke-linecap:round;paint-order:markers stroke fill"
           d="m 148.03749,171.53281 v 37.35406"
           id="path2946" /></g><g
         id="g2954"
         style="fill:#f0f0f0;fill-opacity:1"
         transform="matrix(2.9181839,0,0,1.8886996,114.25745,-29.512411)"><path
           style="color:#000000;fill:#f0f0f0;fill-opacity:1;fill-rule:evenodd;stroke-linecap:round;paint-order:markers stroke fill"
           d="m 148.03711,169.91016 a 1.6230299,1.6230299 0 0 0 -1.62305,1.62304 v 37.35352 a 1.6230299,1.6230299 0 0 0 1.62305,1.62305 1.6230299,1.6230299 0 0 0 1.62305,-1.62305 V 171.5332 a 1.6230299,1.6230299 0 0 0 -1.62305,-1.62304 z"
           id="path2950" /><path
           style="color:#000000;fill:#f0f0f0;fill-opacity:1;fill-rule:evenodd;stroke-width:3.24606;stroke-linecap:round;paint-order:markers stroke fill"
           d="m 148.03749,171.53281 v 37.35406"
           id="path2952" /></g><g
         id="g2960"
         style="fill:#f0f0f0;fill-opacity:1"
         transform="matrix(2.9181839,0,0,1.5200484,132.21796,33.125168)"><path
           style="color:#000000;fill:#f0f0f0;fill-opacity:1;fill-rule:evenodd;stroke-linecap:round;paint-order:markers stroke fill"
           d="m 148.03711,169.91016 a 1.6230299,1.6230299 0 0 0 -1.62305,1.62304 v 37.35352 a 1.6230299,1.6230299 0 0 0 1.62305,1.62305 1.6230299,1.6230299 0 0 0 1.62305,-1.62305 V 171.5332 a 1.6230299,1.6230299 0 0 0 -1.62305,-1.62304 z"
           id="path2956" /><path
           style="color:#000000;fill:#f0f0f0;fill-opacity:1;fill-rule:evenodd;stroke-width:3.24606;stroke-linecap:round;paint-order:markers stroke fill"
           d="m 148.03749,171.53281 v 37.35406"
           id="path2958" /></g><g
         id="g3002"
         style="fill:#f0f0f0;fill-opacity:1"
         transform="matrix(-2.9181839,0,0,3.289574,641.49687,-267.53521)"><path
           style="color:#000000;fill:#f0f0f0;fill-opacity:1;fill-rule:evenodd;stroke-linecap:round;paint-order:markers stroke fill"
           d="m 148.03711,169.91016 a 1.6230299,1.6230299 0 0 0 -1.62305,1.62304 v 37.35352 a 1.6230299,1.6230299 0 0 0 1.62305,1.62305 1.6230299,1.6230299 0 0 0 1.62305,-1.62305 V 171.5332 a 1.6230299,1.6230299 0 0 0 -1.62305,-1.62304 z"
           id="path2998" /><path
           style="color:#000000;fill:#f0f0f0;fill-opacity:1;fill-rule:evenodd;stroke-width:3.24606;stroke-linecap:round;paint-order:markers stroke fill"
           d="m 148.03749,171.53281 v 37.35406"
           id="path3000" /></g><g
         id="g3008"
         style="fill:#f0f0f0;fill-opacity:1"
         transform="matrix(-2.9181839,0,0,1.8886996,623.53636,-29.512411)"><path
           style="color:#000000;fill:#f0f0f0;fill-opacity:1;fill-rule:evenodd;stroke-linecap:round;paint-order:markers stroke fill"
           d="m 148.03711,169.91016 a 1.6230299,1.6230299 0 0 0 -1.62305,1.62304 v 37.35352 a 1.6230299,1.6230299 0 0 0 1.62305,1.62305 1.6230299,1.6230299 0 0 0 1.62305,-1.62305 V 171.5332 a 1.6230299,1.6230299 0 0 0 -1.62305,-1.62304 z"
           id="path3004" /><path
           style="color:#000000;fill:#f0f0f0;fill-opacity:1;fill-rule:evenodd;stroke-width:3.24606;stroke-linecap:round;paint-order:markers stroke fill"
           d="m 148.03749,171.53281 v 37.35406"
           id="path3006" /></g><g
         id="g3014"
         style="fill:#f0f0f0;fill-opacity:1"
         transform="matrix(-2.9181839,0,0,1.8886996,603.33078,-29.512411)"><path
           style="color:#000000;fill:#f0f0f0;fill-opacity:1;fill-rule:evenodd;stroke-linecap:round;paint-order:markers stroke fill"
           d="m 148.03711,169.91016 a 1.6230299,1.6230299 0 0 0 -1.62305,1.62304 v 37.35352 a 1.6230299,1.6230299 0 0 0 1.62305,1.62305 1.6230299,1.6230299 0 0 0 1.62305,-1.62305 V 171.5332 a 1.6230299,1.6230299 0 0 0 -1.62305,-1.62304 z"
           id="path3010" /><path
           style="color:#000000;fill:#f0f0f0;fill-opacity:1;fill-rule:evenodd;stroke-width:3.24606;stroke-linecap:round;paint-order:markers stroke fill"
           d="m 148.03749,171.53281 v 37.35406"
           id="path3012" /></g><g
         id="g3020"
         style="fill:#f0f0f0;fill-opacity:1"
         transform="matrix(-2.9181839,0,0,1.5200484,585.37027,33.125169)"><path
           style="color:#000000;fill:#f0f0f0;fill-opacity:1;fill-rule:evenodd;stroke-linecap:round;paint-order:markers stroke fill"
           d="m 148.03711,169.91016 a 1.6230299,1.6230299 0 0 0 -1.62305,1.62304 v 37.35352 a 1.6230299,1.6230299 0 0 0 1.62305,1.62305 1.6230299,1.6230299 0 0 0 1.62305,-1.62305 V 171.5332 a 1.6230299,1.6230299 0 0 0 -1.62305,-1.62304 z"
           id="path3016" /><path
           style="color:#000000;fill:#f0f0f0;fill-opacity:1;fill-rule:evenodd;stroke-width:3.24606;stroke-linecap:round;paint-order:markers stroke fill"
           d="m 148.03749,171.53281 v 37.35406"
           id="path3018" /></g><path
         style="fill:#f0f0f0;fill-opacity:1;fill-rule:evenodd;stroke:none;stroke-width:9.44652;stroke-linecap:round;stroke-dasharray:none;paint-order:markers stroke fill;stop-color:#000000"
         d="M 99.897165,288.10907 604.19511,289.36453 351.58437,317.2773 Z"
         id="path3040" /></g></g></svg>
